<?xml version="1.0" standalone="no"?>
<!DOCTYPE svg PUBLIC "-//W3C//DTD SVG 1.0//EN" "http://www.w3.org/TR/2001/REC-SVG-20010904/DTD/svg10.dtd">
<svg xmlns="http://www.w3.org/2000/svg" xmlns:xlink="http://www.w3.org/1999/xlink" id="body_1" width="950" height="1000">

<g transform="matrix(1 0 0 1 0 0)">
    <path transform="matrix(1 0 0 1 661 345)"  d="M0 0L18 0L18 2L24 2L24 3L26 3L26 4L29 4L29 5L32 5L32 6L33 6L33 7L36 7L36 8L38 8L38 10L39 10L39 11L40 11L40 13L42 13L42 16L43 16L43 19L44 19L44 20L45 20L45 26L46 26L46 30L47 30L47 32L48 32L48 43L50 43L50 51L51 51L51 56L52 56L52 87L51 87L51 88L50 88L50 90L49 90L49 91L48 91L48 93L46 93L46 95L43 95L43 96L41 96L41 98L37 98L37 99L33 99L33 100L32 100L32 101L33 101L33 103L34 103L34 110L35 110L35 120L34 120L34 121L33 121L33 122L32 122L32 123L30 123L30 124L32 124L32 125L33 125L33 126L34 126L34 128L35 128L35 127L36 127L36 131L35 131L35 132L34 132L34 144L35 144L35 147L34 147L34 148L35 148L35 172L37 172L37 178L35 178L35 179L36 179L36 184L35 184L35 186L29 186L29 187L28 187L28 190L7 190L7 186L1 186L1 184L-2 184L-2 181L-3 181L-3 180L-4 180L-4 171L-3 171L-3 170L-2 170L-2 148L-1 148L-1 137L1 137L1 131L3 131L3 129L5 129L5 126L6 126L6 124L4 124L4 123L3 123L3 121L1 121L1 114L-1 114L-1 110L-2 110L-2 106L-3 106L-3 105L-4 105L-4 101L-8 101L-8 100L-9 100L-9 99L-11 99L-11 98L-13 98L-13 96L-15 96L-15 93L-16 93L-16 90L-18 90L-18 82L-19 82L-19 76L-21 76L-21 65L-22 65L-22 67L-23 67L-23 52L-24 52L-24 29L-23 29L-23 24L-21 24L-21 21L-19 21L-19 19L-18 19L-18 16L-16 16L-16 15L-15 15L-15 13L-13 13L-13 11L-12 11L-12 10L-10 10L-10 8L-8 8L-8 7L-7 7L-7 5L-5 5L-5 4L-4 4L-4 3L-3 3L-3 2L0 2L0 0z" stroke="none" fill="#040303" fill-rule="nonzero" />
    <path transform="matrix(1 0 0 1 261 381)"  d="M0 0L1 0L1 1L2 1L2 3L3 3L3 4L4 4L4 6L5 6L5 8L6 8L6 9L7 9L7 11L8 11L8 12L9 12L9 14L10 14L10 15L11 15L11 17L12 17L12 19L13 19L13 20L14 20L14 22L15 22L15 23L16 23L16 25L17 25L17 27L18 27L18 28L19 28L19 30L20 30L20 32L21 32L21 33L22 33L22 35L23 35L23 37L24 37L24 38L25 38L25 40L26 40L26 42L27 42L27 43L28 43L28 45L29 45L29 47L30 47L30 49L31 49L31 50L32 50L32 52L33 52L33 54L34 54L34 55L35 55L35 57L36 57L36 59L37 59L37 61L38 61L38 62L39 62L39 63L41 63L41 61L40 61L40 59L39 59L39 58L38 58L38 56L37 56L37 54L36 54L36 53L35 53L35 51L34 51L34 49L33 49L33 48L32 48L32 47L35 47L35 48L36 48L36 50L37 50L37 52L38 52L38 54L39 54L39 56L40 56L40 57L41 57L41 59L42 59L42 60L43 60L43 61L44 61L44 62L45 62L45 63L46 63L46 64L47 64L47 65L48 65L48 66L49 66L49 67L50 67L50 69L51 69L51 71L52 71L52 73L53 73L53 75L54 75L54 77L55 77L55 79L56 79L56 80L57 80L57 82L58 82L58 84L59 84L59 86L60 86L60 88L61 88L61 91L62 91L62 87L63 87L63 72L62 72L62 40L63 40L63 38L83 38L83 39L91 39L91 51L90 51L90 54L91 54L91 56L92 56L92 59L93 59L93 67L92 67L92 72L91 72L91 181L90 181L90 189L89 189L89 188L87 188L87 186L86 186L86 185L85 185L85 184L84 184L84 182L83 182L83 180L82 180L82 178L81 178L81 177L80 177L80 175L79 175L79 174L78 174L78 172L77 172L77 170L76 170L76 169L75 169L75 167L74 167L74 166L73 166L73 164L72 164L72 162L71 162L71 161L70 161L70 159L69 159L69 158L68 158L68 156L67 156L67 155L66 155L66 153L65 153L65 151L64 151L64 150L63 150L63 148L62 148L62 147L61 147L61 145L60 145L60 143L59 143L59 142L58 142L58 140L57 140L57 138L56 138L56 137L55 137L55 135L54 135L54 133L53 133L53 131L52 131L52 130L51 130L51 128L50 128L50 126L49 126L49 124L48 124L48 122L47 122L47 120L46 120L46 119L45 119L45 117L44 117L44 115L43 115L43 113L42 113L42 112L41 112L41 110L40 110L40 109L39 109L39 107L38 107L38 105L37 105L37 104L36 104L36 102L35 102L35 101L34 101L34 96L33 96L33 95L32 95L32 94L31 94L31 92L30 92L30 91L29 91L29 137L30 137L30 149L1 149L1 137L0 137L0 91L1 91L1 71L0 71L0 48L2 48L2 49L4 49L4 47L5 47L5 46L6 46L6 45L7 45L7 44L8 44L8 43L7 43L7 42L6 42L6 43L5 43L5 44L3 44L3 45L1 45L1 41L0 41L0 0zM68 41L68 42L86 42L86 41zM65 54L65 64L66 64L66 54zM89 55L89 56L90 56L90 55zM42 65L42 66L43 66L43 65zM65 65L65 93L64 93L64 100L63 100L63 99L62 99L62 97L61 97L61 95L60 95L60 93L59 93L59 91L58 91L58 90L57 90L57 88L56 88L56 87L55 87L55 89L56 89L56 91L57 91L57 93L58 93L58 95L59 95L59 96L60 96L60 98L61 98L61 100L62 100L62 101L63 101L63 103L64 103L64 104L65 104L65 105L66 105L66 65zM89 65L89 67L90 67L90 65zM46 71L46 72L47 72L47 71zM47 73L47 74L48 74L48 73zM48 75L48 76L49 76L49 75zM89 75L89 78L90 78L90 75zM49 76L49 78L50 78L50 76zM50 78L50 79L51 79L51 78zM53 83L53 84L54 84L54 83zM54 85L54 86L55 86L55 85zM65 106L65 107L66 107L66 106z" stroke="none" fill="#FF9307" fill-rule="nonzero" />
    <path transform="matrix(1 0 0 1 587 424)"  d="M0 0L22 0L22 1L28 1L28 2L31 2L31 3L34 3L34 4L36 4L36 5L38 5L38 6L40 6L40 7L42 7L42 8L43 8L43 9L44 9L44 10L45 10L45 11L46 11L46 12L47 12L47 13L48 13L48 15L49 15L49 20L50 20L50 22L51 22L51 25L52 25L52 27L53 27L53 30L54 30L54 34L53 34L53 37L52 37L52 38L41 38L41 39L43 39L43 41L42 41L42 40L38 40L38 39L35 39L35 38L29 38L29 37L26 37L26 36L25 36L25 34L19 34L19 33L16 33L16 32L12 32L12 31L4 31L4 32L2 32L2 35L3 35L3 36L4 36L4 37L6 37L6 38L8 38L8 39L9 39L9 40L11 40L11 41L12 41L12 42L10 42L10 41L6 41L6 40L4 40L4 39L2 39L2 38L1 38L1 36L0 36L0 34L-1 34L-1 30L1 30L1 29L3 29L3 28L12 28L12 27L1 27L1 28L0 28L0 29L-2 29L-2 31L-3 31L-3 35L-2 35L-2 37L-1 37L-1 38L0 38L0 39L1 39L1 40L2 40L2 41L4 41L4 42L6 42L6 43L8 43L8 44L10 44L10 45L13 45L13 46L16 46L16 47L19 47L19 48L22 48L22 47L20 47L20 46L18 46L18 45L17 45L17 44L16 44L16 43L15 43L15 42L18 42L18 43L20 43L20 44L23 44L23 45L26 45L26 46L28 46L28 47L31 47L31 48L33 48L33 49L35 49L35 50L37 50L37 51L39 51L39 52L41 52L41 53L43 53L43 54L44 54L44 55L46 55L46 56L47 56L47 57L48 57L48 58L49 58L49 59L50 59L50 60L51 60L51 61L52 61L52 62L53 62L53 63L54 63L54 65L55 65L55 67L56 67L56 71L57 71L57 86L56 86L56 87L54 87L54 88L56 88L56 90L55 90L55 91L54 91L54 93L53 93L53 94L52 94L52 96L51 96L51 97L50 97L50 99L49 99L49 100L48 100L48 101L47 101L47 102L46 102L46 105L45 105L45 106L44 106L44 107L42 107L42 108L41 108L41 109L39 109L39 110L37 110L37 111L35 111L35 110L31 110L31 109L22 109L22 110L8 110L8 111L0 111L0 110L-5 110L-5 109L-9 109L-9 108L-11 108L-11 107L-13 107L-13 106L-14 106L-14 105L-16 105L-16 104L-17 104L-17 103L-18 103L-18 102L-19 102L-19 101L-20 101L-20 100L-21 100L-21 99L-22 99L-22 97L-23 97L-23 96L-24 96L-24 94L-25 94L-25 92L-26 92L-26 89L-27 89L-27 86L-28 86L-28 80L-29 80L-29 67L-19 67L-19 68L-2 68L-2 72L-1 72L-1 73L-2 73L-2 78L-1 78L-1 82L0 82L0 83L1 83L1 84L2 84L2 85L3 85L3 86L5 86L5 87L8 87L8 88L14 88L14 89L21 89L21 88L23 88L23 87L25 87L25 86L26 86L26 85L28 85L28 84L29 84L29 83L30 83L30 80L29 80L29 78L28 78L28 77L27 77L27 76L26 76L26 75L25 75L25 74L23 74L23 73L21 73L21 72L19 72L19 71L17 71L17 70L15 70L15 69L12 69L12 68L10 68L10 67L8 67L8 66L5 66L5 65L3 65L3 64L0 64L0 63L-3 63L-3 62L-5 62L-5 61L-7 61L-7 60L-8 60L-8 59L-10 59L-10 58L-12 58L-12 57L-13 57L-13 56L-15 56L-15 55L-17 55L-17 54L-18 54L-18 53L-20 53L-20 52L-21 52L-21 51L-22 51L-22 50L-23 50L-23 48L-24 48L-24 47L-25 47L-25 44L-26 44L-26 41L-27 41L-27 28L-26 28L-26 24L-25 24L-25 22L-24 22L-24 19L-23 19L-23 17L-22 17L-22 15L-21 15L-21 14L-20 14L-20 12L-19 12L-19 11L-18 11L-18 10L-17 10L-17 9L-16 9L-16 8L-15 8L-15 7L-14 7L-14 6L-13 6L-13 5L-11 5L-11 4L-8 4L-8 3L-6 3L-6 2L-4 2L-4 1L0 1L0 0zM9 23L9 24L15 24L15 25L19 25L19 26L21 26L21 27L20 27L20 28L23 28L23 29L25 29L25 30L26 30L26 31L27 31L27 32L28 32L28 33L27 33L27 35L28 35L28 36L31 36L31 35L30 35L30 30L29 30L29 28L28 28L28 27L27 27L27 26L26 26L26 25L24 25L24 24L21 24L21 23zM5 24L5 25L6 25L6 24zM19 28L19 29L20 29L20 28zM21 29L21 30L22 30L22 29zM23 30L23 31L24 31L24 30zM10 46L10 48L11 48L11 46zM23 48L23 49L25 49L25 48zM26 49L26 50L27 50L27 49zM28 50L28 51L29 51L29 50zM30 51L30 52L31 52L31 51zM32 52L32 53L34 53L34 52zM37 54L37 55L38 55L38 54zM39 54L39 55L40 55L40 54zM40 55L40 56L41 56L41 57L42 57L42 58L43 58L43 59L45 59L45 57L46 57L46 56L42 56L42 55zM42 59L42 60L43 60L43 59zM41 60L41 61L42 61L42 60zM46 60L46 63L47 63L47 62L48 62L48 60zM49 62L49 63L50 63L50 62zM50 66L50 67L46 67L46 70L49 70L49 69L50 69L50 68L53 68L53 66zM53 68L53 69L54 69L54 68zM33 71L33 72L34 72L34 71zM32 72L32 73L33 73L33 72zM54 76L54 77L55 77L55 76zM54 78L54 84L55 84L55 78zM47 82L47 84L49 84L49 83L50 83L50 82zM-13 83L-13 85L-12 85L-12 83zM52 90L52 91L53 91L53 90zM-4 92L-4 93L-3 93L-3 92zM51 92L51 93L52 93L52 92zM-4 94L-4 95L-2 95L-2 94zM50 94L50 95L51 95L51 94zM-3 97L-3 101L-2 101L-2 103L0 103L0 102L1 102L1 99L0 99L0 98L-1 98L-1 97zM48 97L48 98L49 98L49 97zM23 98L23 100L25 100L25 98zM46 99L46 100L45 100L45 101L47 101L47 99zM-14 103L-14 104L-13 104L-13 103zM-3 103L-3 104L-2 104L-2 103zM-13 104L-13 105L-12 105L-12 104zM32 106L32 109L35 109L35 108L34 108L34 106zM38 106L38 107L39 107L39 106zM24 107L24 108L31 108L31 107zM35 107L35 108L36 108L36 107z" stroke="none" fill="#FF9307" fill-rule="nonzero" />
    <path transform="matrix(1 0 0 1 402 418)"  d="M0 0L1 0L1 1L14 1L14 0L15 0L15 1L16 1L16 2L17 2L17 3L18 3L18 6L19 6L19 9L20 9L20 12L21 12L21 14L22 14L22 16L23 16L23 18L24 18L24 19L26 19L26 18L25 18L25 15L24 15L24 13L23 13L23 10L22 10L22 8L24 8L24 10L25 10L25 12L26 12L26 14L27 14L27 17L28 17L28 19L29 19L29 20L31 20L31 22L32 22L32 26L33 26L33 29L34 29L34 32L35 32L35 35L36 35L36 38L37 38L37 41L38 41L38 43L39 43L39 46L40 46L40 48L41 48L41 51L42 51L42 53L43 53L43 56L44 56L44 59L45 59L45 61L46 61L46 64L47 64L47 66L48 66L48 69L49 69L49 71L50 71L50 74L51 74L51 77L52 77L52 79L53 79L53 82L54 82L54 84L55 84L55 87L56 87L56 90L57 90L57 93L58 93L58 96L59 96L59 100L60 100L60 103L61 103L61 107L62 107L62 108L63 108L63 109L60 109L60 110L59 110L59 109L56 109L56 110L53 110L53 111L47 111L47 110L41 110L41 109L34 109L34 108L33 108L33 105L32 105L32 102L31 102L31 99L30 99L30 96L29 96L29 94L28 94L28 93L29 93L29 92L30 92L30 90L31 90L31 89L32 89L32 87L30 87L30 88L29 88L29 89L26 89L26 88L25 88L25 84L24 84L24 83L23 83L23 84L16 84L16 83L14 83L14 84L1 84L1 83L0 83L0 80L-6 80L-6 81L-7 81L-7 82L-4 82L-4 85L-5 85L-5 89L-6 89L-6 92L-7 92L-7 94L-8 94L-8 96L-9 96L-9 98L-10 98L-10 103L-11 103L-11 105L-12 105L-12 106L-13 106L-13 107L-14 107L-14 108L-16 108L-16 109L-21 109L-21 110L-33 110L-33 109L-40 109L-40 104L-39 104L-39 102L-38 102L-38 100L-37 100L-37 98L-36 98L-36 95L-35 95L-35 93L-34 93L-34 90L-33 90L-33 86L-32 86L-32 83L-31 83L-31 82L-30 82L-30 81L-31 81L-31 78L-30 78L-30 75L-29 75L-29 73L-28 73L-28 70L-27 70L-27 73L-25 73L-25 71L-24 71L-24 69L-19 69L-19 68L-20 68L-20 67L-22 67L-22 66L-24 66L-24 65L-25 65L-25 64L-24 64L-24 62L-23 62L-23 61L-22 61L-22 60L-23 60L-23 57L-22 57L-22 55L-21 55L-21 53L-20 53L-20 55L-18 55L-18 52L-20 52L-20 48L-19 48L-19 47L-18 47L-18 46L-17 46L-17 45L-18 45L-18 42L-17 42L-17 41L-16 41L-16 39L-15 39L-15 36L-13 36L-13 35L-12 35L-12 34L-13 34L-13 32L-12 32L-12 29L-11 29L-11 26L-10 26L-10 23L-9 23L-9 21L-8 21L-8 18L-7 18L-7 16L-6 16L-6 13L-5 13L-5 11L-4 11L-4 9L-3 9L-3 7L-2 7L-2 5L-1 5L-1 3L0 3L0 0zM26 20L26 21L27 21L27 20zM27 23L27 24L28 24L28 23zM28 24L28 25L29 25L29 24zM29 27L29 30L30 30L30 27zM30 30L30 31L31 31L31 30zM31 33L31 34L32 34L32 33zM25 34L25 35L26 35L26 34zM24 35L24 37L25 37L25 35zM32 35L32 38L33 38L33 35zM-13 37L-13 40L-12 40L-12 42L-11 42L-11 43L-9 43L-9 41L-8 41L-8 40L-9 40L-9 38L-11 38L-11 37zM13 38L13 39L14 39L14 40L15 40L15 38zM33 38L33 41L34 41L34 44L35 44L35 46L36 46L36 49L37 49L37 51L38 51L38 53L39 53L39 50L38 50L38 47L37 47L37 45L36 45L36 43L35 43L35 40L34 40L34 38zM23 46L23 48L24 48L24 46zM-18 49L-18 50L-17 50L-17 49zM10 49L10 52L9 52L9 55L8 55L8 58L11 58L11 59L13 59L13 53L12 53L12 51L11 51L11 49zM39 53L39 56L40 56L40 53zM16 55L16 57L17 57L17 55zM22 56L22 57L23 57L23 56zM40 56L40 58L41 58L41 56zM41 58L41 60L42 60L42 58zM4 59L4 60L6 60L6 59zM20 60L20 63L22 63L22 61L21 61L21 60zM-14 61L-14 62L-11 62L-11 61zM7 61L7 62L9 62L9 63L13 63L13 62L16 62L16 61zM42 61L42 62L43 62L43 61zM2 63L2 64L3 64L3 63zM-14 66L-14 67L-13 67L-13 66zM-11 66L-11 68L-12 68L-12 69L-13 69L-13 70L-15 70L-15 71L-14 71L-14 75L-13 75L-13 80L-12 80L-12 81L-11 81L-11 80L-10 80L-10 81L-7 81L-7 79L-9 79L-9 78L-12 78L-12 75L-11 75L-11 74L-10 74L-10 73L-9 73L-9 72L-8 72L-8 71L-6 71L-6 68L-7 68L-7 66zM4 66L4 67L5 67L5 66zM28 68L28 70L31 70L31 69L30 69L30 68zM45 68L45 70L46 70L46 68zM-19 69L-19 70L-18 70L-18 69zM-21 70L-21 71L-20 71L-20 70zM46 71L46 72L47 72L47 71zM27 72L27 77L28 77L28 75L29 75L29 73L28 73L28 72zM32 73L32 74L33 74L33 73zM47 73L47 75L48 75L48 73zM31 74L31 75L32 75L32 74zM-16 75L-16 77L-15 77L-15 76L-14 76L-14 75zM3 75L3 76L5 76L5 75zM48 75L48 78L49 78L49 79L50 79L50 77L49 77L49 75zM1 76L1 77L3 77L3 76zM-21 79L-21 80L-20 80L-20 79zM-20 80L-20 81L-19 81L-19 80zM-19 81L-19 82L-18 82L-18 81zM24 81L24 83L25 83L25 81zM-24 82L-24 84L-25 84L-25 85L-26 85L-26 86L-27 86L-27 87L-28 87L-28 90L-25 90L-25 91L-23 91L-23 88L-20 88L-20 86L-19 86L-19 85L-20 85L-20 83L-21 83L-21 82zM-10 84L-10 85L-11 85L-11 86L-6 86L-6 85L-7 85L-7 84zM-13 88L-13 90L-11 90L-11 88zM-17 90L-17 91L-18 91L-18 92L-16 92L-16 91L-15 91L-15 90zM-11 91L-11 92L-10 92L-10 91zM-12 92L-12 93L-11 93L-11 92zM-20 95L-20 96L-23 96L-23 97L-24 97L-24 98L-23 98L-23 99L-21 99L-21 97L-19 97L-19 96L-17 96L-17 95zM-12 95L-12 96L-11 96L-11 95zM-35 96L-35 97L-33 97L-33 96zM-11 97L-11 98L-10 98L-10 97zM-28 101L-28 102L-27 102L-27 101zM57 102L57 104L58 104L58 102zM58 104L58 105L59 105L59 104zM58 106L58 107L59 107L59 106zM35 107L35 108L49 108L49 107zM54 107L54 108L56 108L56 107zM59 107L59 108L60 108L60 107z" stroke="none" fill="#FF9307" fill-rule="nonzero" />
    <path transform="matrix(1 0 0 1 553 343)"  d="M0 0L2 0L2 192L0 192L0 103L-9 103L-9 104L-11 104L-11 105L-24 105L-24 104L-51 104L-51 107L-52 107L-52 114L-51 114L-51 119L-50 119L-50 120L-47 120L-47 119L-41 119L-41 120L-21 120L-21 119L-12 119L-12 118L-11 118L-11 123L-10 123L-10 127L-11 127L-11 128L-12 128L-12 127L-13 127L-13 126L-15 126L-15 127L-16 127L-16 128L-15 128L-15 131L-14 131L-14 133L-13 133L-13 145L-19 145L-19 143L-18 143L-18 142L-19 142L-19 141L-23 141L-23 142L-25 142L-25 143L-21 143L-21 144L-25 144L-25 145L-30 145L-30 144L-32 144L-32 142L-33 142L-33 145L-52 145L-52 158L-53 158L-53 159L-54 159L-54 161L-53 161L-53 163L-52 163L-52 171L-54 171L-54 172L-56 172L-56 173L-53 173L-53 172L-52 172L-52 176L-53 176L-53 177L-54 177L-54 178L-55 178L-55 179L-54 179L-54 180L-53 180L-53 185L-67 185L-67 184L-69 184L-69 183L-70 183L-70 185L-71 185L-71 184L-72 184L-72 185L-77 185L-77 184L-78 184L-78 183L-79 183L-79 182L-78 182L-78 176L-76 176L-76 175L-78 175L-78 174L-80 174L-80 168L-79 168L-79 166L-78 166L-78 165L-76 165L-76 166L-75 166L-75 167L-74 167L-74 164L-76 164L-76 163L-78 163L-78 162L-79 162L-79 157L-78 157L-78 147L-79 147L-79 125L-78 125L-78 120L-77 120L-77 119L-78 119L-78 116L-79 116L-79 107L-80 107L-80 101L-79 101L-79 85L-80 85L-80 78L-79 78L-79 79L-78 79L-78 78L-68 78L-68 79L-51 79L-51 78L-30 78L-30 77L-28 77L-28 78L-21 78L-21 79L-19 79L-19 80L-16 80L-16 79L-6 79L-6 80L-5 80L-5 98L-8 98L-8 99L-7 99L-7 100L-5 100L-5 101L-2 101L-2 89L-1 89L-1 90L0 90L0 0zM-1 98L-1 102L0 102L0 98zM-56 99L-56 100L-55 100L-55 101L-56 101L-56 107L-55 107L-55 116L-56 116L-56 118L-55 118L-55 121L-54 121L-54 100L-25 100L-25 99zM-24 100L-24 101L-12 101L-12 100zM-44 122L-44 123L-14 123L-14 122zM-15 124L-15 125L-13 125L-13 124zM-69 131L-69 132L-67 132L-67 131zM-68 134L-68 142L-69 142L-69 144L-65 144L-65 143L-64 143L-64 142L-65 142L-65 141L-66 141L-66 139L-65 139L-65 136L-66 136L-66 134zM-29 134L-29 135L-28 135L-28 134zM-44 135L-44 137L-42 137L-42 136L-41 136L-41 135zM-15 137L-15 142L-17 142L-17 143L-14 143L-14 137zM-28 142L-28 143L-27 143L-27 142zM-63 143L-63 144L-64 144L-64 145L-61 145L-61 143zM-74 144L-74 145L-75 145L-75 146L-76 146L-76 147L-77 147L-77 149L-76 149L-76 150L-75 150L-75 152L-74 152L-74 151L-73 151L-73 150L-74 150L-74 148L-68 148L-68 147L-69 147L-69 145L-70 145L-70 144zM-55 150L-55 151L-54 151L-54 150zM-74 154L-74 155L-73 155L-73 154zM-78 157L-78 159L-77 159L-77 157zM-69 157L-69 158L-70 158L-70 159L-68 159L-68 157zM-67 162L-67 164L-65 164L-65 166L-71 166L-71 165L-72 165L-72 166L-73 166L-73 168L-72 168L-72 169L-71 169L-71 170L-72 170L-72 172L-73 172L-73 173L-72 173L-72 175L-70 175L-70 176L-69 176L-69 178L-68 178L-68 179L-66 179L-66 177L-64 177L-64 178L-63 178L-63 179L-60 179L-60 180L-62 180L-62 181L-57 181L-57 182L-58 182L-58 183L-55 183L-55 182L-56 182L-56 180L-57 180L-57 177L-63 177L-63 176L-64 176L-64 174L-66 174L-66 175L-67 175L-67 172L-68 172L-68 171L-66 171L-66 170L-65 170L-65 169L-64 169L-64 168L-62 168L-62 165L-63 165L-63 164L-64 164L-64 163L-65 163L-65 162zM-62 162L-62 163L-61 163L-61 162zM-77 177L-77 178L-76 178L-76 177zM-67 181L-67 183L-63 183L-63 181z" stroke="none" fill="#FE9A19" fill-rule="nonzero" />
    <path transform="matrix(1 0 0 1 661 348)"  d="M0 0L7 0L7 2L8 2L8 3L9 3L9 5L13 5L13 4L14 4L14 3L15 3L15 9L6 9L6 10L3 10L3 11L1 11L1 12L-2 12L-2 13L-4 13L-4 14L-5 14L-5 15L-7 15L-7 16L-8 16L-8 17L-9 17L-9 20L-6 20L-6 19L-5 19L-5 18L-3 18L-3 17L0 17L0 16L1 16L1 15L4 15L4 14L5 14L5 13L23 13L23 14L26 14L26 11L23 11L23 10L18 10L18 9L17 9L17 6L20 6L20 5L23 5L23 6L24 6L24 7L27 7L27 6L29 6L29 8L30 8L30 9L34 9L34 10L35 10L35 11L38 11L38 12L39 12L39 13L40 13L40 15L37 15L37 14L33 14L33 13L31 13L31 15L32 15L32 16L34 16L34 17L36 17L36 18L39 18L39 19L40 19L40 20L42 20L42 22L39 22L39 20L36 20L36 19L31 19L31 21L32 21L32 22L35 22L35 23L39 23L39 24L40 24L40 25L42 25L42 26L43 26L43 28L41 28L41 27L39 27L39 26L36 26L36 25L32 25L32 28L36 28L36 29L39 29L39 30L40 30L40 31L43 31L43 32L44 32L44 33L45 33L45 34L42 34L42 33L40 33L40 32L34 32L34 34L37 34L37 35L39 35L39 36L42 36L42 37L45 37L45 39L46 39L46 40L43 40L43 39L40 39L40 38L35 38L35 41L38 41L38 42L42 42L42 43L44 43L44 44L45 44L45 45L41 45L41 44L36 44L36 47L39 47L39 48L42 48L42 49L44 49L44 50L46 50L46 51L49 51L49 53L45 53L45 52L42 52L42 51L37 51L37 54L42 54L42 55L45 55L45 56L48 56L48 57L50 57L50 60L46 60L46 59L45 59L45 58L42 58L42 57L38 57L38 59L37 59L37 60L35 60L35 56L26 56L26 55L25 55L25 53L33 53L33 50L29 50L29 49L24 49L24 46L32 46L32 43L22 43L22 39L28 39L28 40L31 40L31 36L21 36L21 32L26 32L26 33L27 33L27 34L31 34L31 33L30 33L30 30L25 30L25 29L20 29L20 26L26 26L26 27L29 27L29 23L21 23L21 22L19 22L19 20L27 20L27 18L26 18L26 17L23 17L23 16L6 16L6 17L1 17L1 18L0 18L0 19L-2 19L-2 20L-4 20L-4 21L-5 21L-5 22L-7 22L-7 23L-8 23L-8 24L-9 24L-9 27L-6 27L-6 26L-5 26L-5 25L-4 25L-4 24L-2 24L-2 23L-1 23L-1 22L1 22L1 21L5 21L5 20L14 20L14 21L12 21L12 22L10 22L10 23L5 23L5 24L3 24L3 25L-1 25L-1 26L-2 26L-2 27L-4 27L-4 28L-6 28L-6 29L-7 29L-7 30L-8 30L-8 34L-6 34L-6 33L-5 33L-5 32L-4 32L-4 31L-2 31L-2 30L-1 30L-1 29L1 29L1 28L7 28L7 29L6 29L6 30L4 30L4 31L1 31L1 32L-1 32L-1 33L-3 33L-3 34L-5 34L-5 35L-6 35L-6 36L-8 36L-8 40L-5 40L-5 39L-4 39L-4 38L-3 38L-3 37L1 37L1 36L3 36L3 35L7 35L7 36L6 36L6 37L3 37L3 38L1 38L1 39L-1 39L-1 40L-3 40L-3 41L-4 41L-4 42L-6 42L-6 43L-7 43L-7 45L-6 45L-6 46L-4 46L-4 45L-2 45L-2 44L-1 44L-1 43L3 43L3 42L4 42L4 41L10 41L10 42L9 42L9 43L8 43L8 44L4 44L4 45L1 45L1 46L-1 46L-1 47L-2 47L-2 48L-4 48L-4 49L-5 49L-5 50L-6 50L-6 52L-5 52L-5 53L-2 53L-2 51L0 51L0 50L2 50L2 49L4 49L4 48L9 48L9 50L8 50L8 51L6 51L6 52L2 52L2 53L0 53L0 54L-2 54L-2 55L-3 55L-3 56L-5 56L-5 60L-2 60L-2 59L-1 59L-1 58L1 58L1 57L2 57L2 56L6 56L6 55L9 55L9 58L6 58L6 59L4 59L4 60L1 60L1 61L-1 61L-1 62L-3 62L-3 63L-4 63L-4 66L-3 66L-3 67L-1 67L-1 66L2 66L2 65L3 65L3 64L5 64L5 63L8 63L8 62L11 62L11 70L10 70L10 73L9 73L9 74L8 74L8 76L7 76L7 77L6 77L6 78L5 78L5 79L4 79L4 80L3 80L3 89L2 89L2 92L1 92L1 94L4 94L4 93L26 93L26 94L30 94L30 102L32 102L32 115L31 115L31 117L30 117L30 119L29 119L29 121L26 121L26 123L31 123L31 125L20 125L20 123L21 123L21 121L20 121L20 122L19 122L19 123L17 123L17 126L16 126L16 127L15 127L15 128L14 128L14 129L10 129L10 145L9 145L9 155L8 155L8 168L9 168L9 170L10 170L10 171L11 171L11 173L12 173L12 174L13 174L13 175L14 175L14 176L15 176L15 177L18 177L18 176L24 176L24 174L23 174L23 173L17 173L17 150L18 150L18 143L19 143L19 171L25 171L25 169L21 169L21 165L22 165L22 166L24 166L24 165L23 165L23 162L21 162L21 157L27 157L27 156L28 156L28 165L27 165L27 166L28 166L28 169L30 169L30 150L25 150L25 152L26 152L26 155L23 155L23 145L30 145L30 130L28 130L28 133L27 133L27 132L26 132L26 129L23 129L23 128L24 128L24 127L32 127L32 138L33 138L33 171L35 171L35 173L34 173L34 180L33 180L33 181L30 181L30 182L27 182L27 183L26 183L26 185L28 185L28 187L7 187L7 183L1 183L1 181L-2 181L-2 178L-3 178L-3 177L-4 177L-4 168L-3 168L-3 167L-2 167L-2 145L-1 145L-1 134L1 134L1 128L3 128L3 126L5 126L5 123L6 123L6 121L4 121L4 120L3 120L3 118L1 118L1 111L-1 111L-1 107L-2 107L-2 103L-3 103L-3 102L-4 102L-4 98L-8 98L-8 97L-9 97L-9 96L-11 96L-11 95L-13 95L-13 93L-15 93L-15 90L-16 90L-16 78L-15 78L-15 77L-14 77L-14 76L-13 76L-13 75L-12 75L-12 74L-11 74L-11 73L-9 73L-9 69L-12 69L-12 70L-13 70L-13 71L-14 71L-14 72L-15 72L-15 74L-17 74L-17 72L-16 72L-16 70L-15 70L-15 69L-14 69L-14 68L-12 68L-12 67L-11 67L-11 63L-13 63L-13 64L-14 64L-14 65L-15 65L-15 66L-16 66L-16 68L-17 68L-17 69L-19 69L-19 66L-18 66L-18 65L-17 65L-17 64L-16 64L-16 63L-15 63L-15 62L-14 62L-14 61L-13 61L-13 60L-12 60L-12 57L-14 57L-14 58L-15 58L-15 59L-16 59L-16 60L-17 60L-17 62L-19 62L-19 59L-18 59L-18 58L-17 58L-17 57L-16 57L-16 56L-15 56L-15 55L-14 55L-14 54L-13 54L-13 50L-14 50L-14 51L-15 51L-15 52L-16 52L-16 53L-17 53L-17 54L-18 54L-18 55L-19 55L-19 56L-20 56L-20 53L-19 53L-19 52L-18 52L-18 51L-17 51L-17 50L-16 50L-16 49L-15 49L-15 48L-14 48L-14 44L-15 44L-15 45L-16 45L-16 46L-17 46L-17 47L-18 47L-18 48L-19 48L-19 49L-20 49L-20 46L-19 46L-19 45L-18 45L-18 44L-17 44L-17 43L-16 43L-16 42L-15 42L-15 41L-14 41L-14 38L-16 38L-16 39L-17 39L-17 40L-18 40L-18 41L-19 41L-19 43L-20 43L-20 44L-22 44L-22 42L-21 42L-21 41L-20 41L-20 39L-19 39L-19 38L-18 38L-18 37L-17 37L-17 36L-16 36L-16 35L-15 35L-15 34L-14 34L-14 31L-16 31L-16 29L-15 29L-15 25L-17 25L-17 26L-18 26L-18 27L-19 27L-19 29L-20 29L-20 31L-22 31L-22 25L-21 25L-21 24L-20 24L-20 22L-19 22L-19 19L-18 19L-18 18L-17 18L-17 16L-16 16L-16 15L-15 15L-15 14L-14 14L-14 12L-13 12L-13 11L-12 11L-12 10L-11 10L-11 9L-10 9L-10 8L-9 8L-9 7L-8 7L-8 6L-7 6L-7 5L-6 5L-6 4L-4 4L-4 3L-3 3L-3 2L-2 2L-2 1L0 1L0 0z" stroke="none" fill="#5B5957" fill-rule="nonzero" />
    <path transform="matrix(1 0 0 1 661 348)"  d="M0 0L7 0L7 2L8 2L8 3L9 3L9 5L13 5L13 4L14 4L14 3L15 3L15 9L6 9L6 10L3 10L3 11L1 11L1 12L-2 12L-2 13L-4 13L-4 14L-5 14L-5 15L-7 15L-7 16L-8 16L-8 17L-9 17L-9 20L-6 20L-6 19L-5 19L-5 18L-3 18L-3 17L0 17L0 16L1 16L1 15L4 15L4 14L5 14L5 13L23 13L23 14L26 14L26 11L23 11L23 10L18 10L18 9L17 9L17 6L20 6L20 5L23 5L23 6L24 6L24 7L27 7L27 6L29 6L29 8L30 8L30 9L34 9L34 10L35 10L35 11L38 11L38 12L39 12L39 13L40 13L40 15L37 15L37 14L33 14L33 13L31 13L31 15L32 15L32 16L34 16L34 17L36 17L36 18L39 18L39 19L40 19L40 20L42 20L42 22L39 22L39 20L36 20L36 19L31 19L31 21L32 21L32 22L35 22L35 23L39 23L39 24L40 24L40 25L42 25L42 26L43 26L43 28L41 28L41 27L39 27L39 26L36 26L36 25L32 25L32 28L36 28L36 29L39 29L39 30L40 30L40 31L43 31L43 32L44 32L44 33L45 33L45 34L42 34L42 33L40 33L40 32L34 32L34 34L37 34L37 35L39 35L39 36L42 36L42 37L45 37L45 39L46 39L46 40L43 40L43 39L40 39L40 38L35 38L35 41L38 41L38 42L42 42L42 43L44 43L44 44L45 44L45 45L41 45L41 44L36 44L36 47L39 47L39 48L42 48L42 49L44 49L44 50L46 50L46 51L49 51L49 53L45 53L45 52L42 52L42 51L37 51L37 54L42 54L42 55L45 55L45 56L48 56L48 57L50 57L50 60L46 60L46 59L45 59L45 58L42 58L42 57L38 57L38 59L37 59L37 60L35 60L35 56L26 56L26 55L25 55L25 53L33 53L33 50L29 50L29 49L24 49L24 46L32 46L32 43L22 43L22 39L28 39L28 40L31 40L31 36L21 36L21 32L26 32L26 33L27 33L27 34L31 34L31 33L30 33L30 30L25 30L25 29L20 29L20 26L26 26L26 27L29 27L29 23L21 23L21 22L19 22L19 20L27 20L27 18L26 18L26 17L23 17L23 16L6 16L6 17L1 17L1 18L0 18L0 19L-2 19L-2 20L-4 20L-4 21L-5 21L-5 22L-7 22L-7 23L-8 23L-8 24L-9 24L-9 27L-6 27L-6 26L-5 26L-5 25L-4 25L-4 24L-2 24L-2 23L-1 23L-1 22L1 22L1 21L5 21L5 20L14 20L14 21L12 21L12 22L10 22L10 23L5 23L5 24L3 24L3 25L-1 25L-1 26L-2 26L-2 27L-4 27L-4 28L-6 28L-6 29L-7 29L-7 30L-8 30L-8 34L-6 34L-6 33L-5 33L-5 32L-4 32L-4 31L-2 31L-2 30L-1 30L-1 29L1 29L1 28L7 28L7 29L6 29L6 30L4 30L4 31L1 31L1 32L-1 32L-1 33L-3 33L-3 34L-5 34L-5 35L-6 35L-6 36L-8 36L-8 40L-5 40L-5 39L-4 39L-4 38L-3 38L-3 37L1 37L1 36L3 36L3 35L7 35L7 36L6 36L6 37L3 37L3 38L1 38L1 39L-1 39L-1 40L-3 40L-3 41L-4 41L-4 42L-6 42L-6 43L-7 43L-7 45L-6 45L-6 46L-4 46L-4 45L-2 45L-2 44L-1 44L-1 43L3 43L3 42L4 42L4 41L10 41L10 42L9 42L9 43L8 43L8 44L4 44L4 45L1 45L1 46L-1 46L-1 47L-2 47L-2 48L-4 48L-4 49L-5 49L-5 50L-6 50L-6 52L-5 52L-5 53L-2 53L-2 51L0 51L0 50L2 50L2 49L4 49L4 48L9 48L9 50L8 50L8 51L6 51L6 52L2 52L2 53L0 53L0 54L-2 54L-2 55L-3 55L-3 56L-5 56L-5 60L-2 60L-2 59L-1 59L-1 58L1 58L1 57L2 57L2 56L6 56L6 55L9 55L9 58L6 58L6 59L4 59L4 60L1 60L1 61L-1 61L-1 62L-3 62L-3 63L-4 63L-4 66L-3 66L-3 67L-1 67L-1 66L2 66L2 65L3 65L3 64L5 64L5 63L8 63L8 62L11 62L11 70L10 70L10 73L9 73L9 74L8 74L8 76L7 76L7 77L6 77L6 78L0 78L0 77L-3 77L-3 78L-4 78L-4 82L-6 82L-6 87L-7 87L-7 92L-8 92L-8 93L-10 93L-10 92L-13 92L-13 91L-14 91L-14 88L-15 88L-15 87L-16 87L-16 78L-15 78L-15 77L-14 77L-14 76L-13 76L-13 75L-12 75L-12 74L-11 74L-11 73L-9 73L-9 69L-12 69L-12 70L-13 70L-13 71L-14 71L-14 72L-15 72L-15 74L-17 74L-17 72L-16 72L-16 70L-15 70L-15 69L-14 69L-14 68L-12 68L-12 67L-11 67L-11 63L-13 63L-13 64L-14 64L-14 65L-15 65L-15 66L-16 66L-16 68L-17 68L-17 69L-19 69L-19 66L-18 66L-18 65L-17 65L-17 64L-16 64L-16 63L-15 63L-15 62L-14 62L-14 61L-13 61L-13 60L-12 60L-12 57L-14 57L-14 58L-15 58L-15 59L-16 59L-16 60L-17 60L-17 62L-19 62L-19 59L-18 59L-18 58L-17 58L-17 57L-16 57L-16 56L-15 56L-15 55L-14 55L-14 54L-13 54L-13 50L-14 50L-14 51L-15 51L-15 52L-16 52L-16 53L-17 53L-17 54L-18 54L-18 55L-19 55L-19 56L-20 56L-20 53L-19 53L-19 52L-18 52L-18 51L-17 51L-17 50L-16 50L-16 49L-15 49L-15 48L-14 48L-14 44L-15 44L-15 45L-16 45L-16 46L-17 46L-17 47L-18 47L-18 48L-19 48L-19 49L-20 49L-20 46L-19 46L-19 45L-18 45L-18 44L-17 44L-17 43L-16 43L-16 42L-15 42L-15 41L-14 41L-14 38L-16 38L-16 39L-17 39L-17 40L-18 40L-18 41L-19 41L-19 43L-20 43L-20 44L-22 44L-22 42L-21 42L-21 41L-20 41L-20 39L-19 39L-19 38L-18 38L-18 37L-17 37L-17 36L-16 36L-16 35L-15 35L-15 34L-14 34L-14 31L-16 31L-16 29L-15 29L-15 25L-17 25L-17 26L-18 26L-18 27L-19 27L-19 29L-20 29L-20 31L-22 31L-22 25L-21 25L-21 24L-20 24L-20 22L-19 22L-19 19L-18 19L-18 18L-17 18L-17 16L-16 16L-16 15L-15 15L-15 14L-14 14L-14 12L-13 12L-13 11L-12 11L-12 10L-11 10L-11 9L-10 9L-10 8L-9 8L-9 7L-8 7L-8 6L-7 6L-7 5L-6 5L-6 4L-4 4L-4 3L-3 3L-3 2L-2 2L-2 1L0 1L0 0z" stroke="none" fill="#E2E4E3" fill-rule="nonzero" />
    <path transform="matrix(1 0 0 1 688 408)"  d="M0 0L4 0L4 1L18 1L18 2L19 2L19 3L20 3L20 4L25 4L25 24L24 24L24 25L23 25L23 27L22 27L22 28L21 28L21 30L19 30L19 32L16 32L16 33L14 33L14 35L10 35L10 36L6 36L6 37L5 37L5 38L6 38L6 40L7 40L7 47L8 47L8 57L7 57L7 58L6 58L6 59L5 59L5 60L3 60L3 61L5 61L5 62L6 62L6 63L7 63L7 65L8 65L8 64L9 64L9 68L8 68L8 69L7 69L7 81L8 81L8 84L7 84L7 85L8 85L8 109L10 109L10 115L8 115L8 116L9 116L9 121L8 121L8 123L2 123L2 124L1 124L1 125L-1 125L-1 123L0 123L0 122L3 122L3 121L6 121L6 120L7 120L7 113L8 113L8 111L6 111L6 78L5 78L5 67L-3 67L-3 68L-4 68L-4 69L-1 69L-1 72L0 72L0 73L1 73L1 70L3 70L3 85L-4 85L-4 95L-1 95L-1 92L-2 92L-2 90L3 90L3 109L1 109L1 106L0 106L0 105L1 105L1 96L0 96L0 97L-6 97L-6 102L-4 102L-4 105L-3 105L-3 106L-5 106L-5 105L-6 105L-6 109L-2 109L-2 111L-8 111L-8 83L-9 83L-9 90L-10 90L-10 113L-4 113L-4 114L-3 114L-3 116L-9 116L-9 117L-12 117L-12 116L-13 116L-13 115L-14 115L-14 114L-15 114L-15 113L-16 113L-16 111L-17 111L-17 110L-18 110L-18 108L-19 108L-19 95L-18 95L-18 85L-17 85L-17 69L-13 69L-13 68L-12 68L-12 67L-11 67L-11 66L-10 66L-10 63L-8 63L-8 62L-7 62L-7 61L-6 61L-6 63L-7 63L-7 65L4 65L4 63L-1 63L-1 61L2 61L2 59L3 59L3 57L4 57L4 55L5 55L5 42L3 42L3 34L-1 34L-1 33L-19 33L-19 31L-18 31L-18 30L-17 30L-17 29L-15 29L-15 28L-13 28L-13 26L-11 26L-11 24L-10 24L-10 22L-9 22L-9 21L-8 21L-8 18L-7 18L-7 14L-6 14L-6 13L-5 13L-5 8L-3 8L-3 14L-4 14L-4 16L-5 16L-5 19L-6 19L-6 22L-7 22L-7 23L-8 23L-8 25L-9 25L-9 26L-10 26L-10 27L-11 27L-11 29L-12 29L-12 30L-13 30L-13 31L-11 31L-11 30L-10 30L-10 29L-8 29L-8 28L-7 28L-7 27L-6 27L-6 26L-5 26L-5 25L-4 25L-4 24L-3 24L-3 22L-2 22L-2 20L-1 20L-1 19L0 19L0 15L1 15L1 8L4 8L4 6L3 6L3 4L2 4L2 3L1 3L1 2L0 2L0 0z" stroke="none" fill="#4E4E4E" fill-rule="nonzero" />
    <path transform="matrix(1 0 0 1 661 345)"  d="M0 0L18 0L18 2L24 2L24 3L26 3L26 4L29 4L29 5L32 5L32 6L33 6L33 7L36 7L36 8L38 8L38 10L39 10L39 11L40 11L40 13L42 13L42 16L43 16L43 19L44 19L44 20L45 20L45 26L46 26L46 30L47 30L47 32L48 32L48 43L50 43L50 51L51 51L51 56L52 56L52 67L47 67L47 66L46 66L46 65L45 65L45 64L31 64L31 63L27 63L27 62L33 62L33 61L34 61L34 60L25 60L25 58L26 58L26 59L35 59L35 63L37 63L37 62L38 62L38 60L42 60L42 61L45 61L45 62L46 62L46 63L50 63L50 60L48 60L48 59L45 59L45 58L42 58L42 57L37 57L37 54L42 54L42 55L45 55L45 56L49 56L49 54L46 54L46 53L44 53L44 52L42 52L42 51L39 51L39 50L36 50L36 47L41 47L41 48L45 48L45 47L44 47L44 46L42 46L42 45L38 45L38 44L35 44L35 41L40 41L40 42L43 42L43 43L46 43L46 42L45 42L45 40L42 40L42 39L39 39L39 38L37 38L37 37L34 37L34 35L40 35L40 36L42 36L42 37L45 37L45 36L44 36L44 35L43 35L43 34L40 34L40 33L39 33L39 32L36 32L36 31L32 31L32 28L36 28L36 29L39 29L39 30L41 30L41 31L43 31L43 29L42 29L42 28L40 28L40 27L39 27L39 26L35 26L35 25L32 25L32 24L31 24L31 22L36 22L36 23L39 23L39 25L42 25L42 23L40 23L40 22L39 22L39 21L36 21L36 20L34 20L34 19L32 19L32 18L31 18L31 16L33 16L33 17L37 17L37 18L40 18L40 16L39 16L39 15L38 15L38 14L35 14L35 13L34 13L34 12L30 12L30 11L29 11L29 9L27 9L27 10L24 10L24 9L23 9L23 8L20 8L20 9L17 9L17 12L18 12L18 13L23 13L23 14L26 14L26 17L23 17L23 16L5 16L5 17L4 17L4 18L1 18L1 19L0 19L0 20L-3 20L-3 21L-5 21L-5 22L-6 22L-6 23L-9 23L-9 20L-8 20L-8 19L-7 19L-7 18L-5 18L-5 17L-4 17L-4 16L-2 16L-2 15L1 15L1 14L3 14L3 13L6 13L6 12L15 12L15 6L14 6L14 7L13 7L13 8L9 8L9 6L8 6L8 5L7 5L7 3L0 3L0 4L-2 4L-2 5L-3 5L-3 6L-4 6L-4 7L-6 7L-6 8L-7 8L-7 9L-8 9L-8 10L-9 10L-9 11L-10 11L-10 12L-11 12L-11 13L-12 13L-12 14L-13 14L-13 15L-14 15L-14 17L-15 17L-15 18L-16 18L-16 19L-17 19L-17 21L-18 21L-18 22L-19 22L-19 25L-20 25L-20 27L-21 27L-21 28L-22 28L-22 34L-20 34L-20 32L-19 32L-19 30L-18 30L-18 29L-17 29L-17 28L-15 28L-15 32L-16 32L-16 34L-14 34L-14 37L-15 37L-15 38L-16 38L-16 39L-17 39L-17 40L-18 40L-18 41L-19 41L-19 42L-20 42L-20 44L-21 44L-21 45L-22 45L-22 47L-20 47L-20 46L-19 46L-19 44L-18 44L-18 43L-17 43L-17 42L-16 42L-16 41L-14 41L-14 44L-15 44L-15 45L-16 45L-16 46L-17 46L-17 47L-18 47L-18 48L-19 48L-19 49L-20 49L-20 52L-19 52L-19 51L-18 51L-18 50L-17 50L-17 49L-16 49L-16 48L-15 48L-15 47L-14 47L-14 51L-15 51L-15 52L-16 52L-16 53L-17 53L-17 54L-18 54L-18 55L-19 55L-19 56L-20 56L-20 59L-19 59L-19 58L-18 58L-18 57L-17 57L-17 56L-16 56L-16 55L-15 55L-15 54L-14 54L-14 53L-13 53L-13 57L-14 57L-14 58L-15 58L-15 59L-16 59L-16 60L-17 60L-17 61L-18 61L-18 62L-19 62L-19 65L-17 65L-17 63L-16 63L-16 62L-15 62L-15 61L-14 61L-14 60L-12 60L-12 63L-13 63L-13 64L-14 64L-14 65L-15 65L-15 66L-16 66L-16 67L-17 67L-17 68L-18 68L-18 69L-19 69L-19 72L-17 72L-17 71L-16 71L-16 69L-15 69L-15 68L-14 68L-14 67L-13 67L-13 66L-11 66L-11 70L-12 70L-12 71L-14 71L-14 72L-15 72L-15 73L-16 73L-16 75L-17 75L-17 77L-15 77L-15 75L-14 75L-14 74L-13 74L-13 73L-12 73L-12 72L-9 72L-9 76L-11 76L-11 77L-12 77L-12 78L-13 78L-13 79L-14 79L-14 80L-15 80L-15 81L-16 81L-16 90L-18 90L-18 82L-19 82L-19 76L-21 76L-21 65L-22 65L-22 67L-23 67L-23 52L-24 52L-24 29L-23 29L-23 24L-21 24L-21 21L-19 21L-19 19L-18 19L-18 16L-16 16L-16 15L-15 15L-15 13L-13 13L-13 11L-12 11L-12 10L-10 10L-10 8L-8 8L-8 7L-7 7L-7 5L-5 5L-5 4L-4 4L-4 3L-3 3L-3 2L0 2L0 0z" stroke="none" fill="#161616" fill-rule="nonzero" />
    <path transform="matrix(1 0 0 1 685 475)"  d="M0 0L8 0L8 11L9 11L9 44L11 44L11 46L10 46L10 53L9 53L9 54L6 54L6 55L3 55L3 56L2 56L2 58L4 58L4 60L-12 60L-12 58L-4 58L-4 57L-3 57L-3 56L-12 56L-12 55L-15 55L-15 54L-17 54L-17 53L-21 53L-21 52L-22 52L-22 15L-21 15L-21 8L-20 8L-20 2L-15 2L-15 12L-16 12L-16 27L-17 27L-17 40L-16 40L-16 41L-15 41L-15 43L-14 43L-14 44L-13 44L-13 46L-12 46L-12 47L-11 47L-11 48L-10 48L-10 49L-9 49L-9 50L-6 50L-6 49L0 49L0 47L-1 47L-1 46L-7 46L-7 23L-6 23L-6 16L-5 16L-5 44L1 44L1 42L-3 42L-3 38L-2 38L-2 39L0 39L0 38L-1 38L-1 35L-3 35L-3 30L3 30L3 29L4 29L4 38L3 38L3 39L4 39L4 42L6 42L6 23L1 23L1 25L2 25L2 28L-1 28L-1 18L6 18L6 3L4 3L4 6L3 6L3 5L2 5L2 2L-1 2L-1 1L0 1L0 0z" stroke="none" fill="#8C8C8C" fill-rule="nonzero" />
    <path transform="matrix(1 0 0 1 681 353)"  d="M0 0L3 0L3 1L4 1L4 2L7 2L7 1L9 1L9 3L10 3L10 4L14 4L14 5L15 5L15 6L18 6L18 7L19 7L19 8L20 8L20 10L17 10L17 9L13 9L13 8L11 8L11 10L12 10L12 11L14 11L14 12L16 12L16 13L19 13L19 14L20 14L20 15L22 15L22 17L19 17L19 15L16 15L16 14L11 14L11 16L12 16L12 17L15 17L15 18L19 18L19 19L20 19L20 20L22 20L22 21L23 21L23 23L21 23L21 22L19 22L19 21L16 21L16 20L12 20L12 23L16 23L16 24L19 24L19 25L20 25L20 26L23 26L23 27L24 27L24 28L25 28L25 29L22 29L22 28L20 28L20 27L14 27L14 29L17 29L17 30L19 30L19 31L22 31L22 32L25 32L25 34L26 34L26 35L23 35L23 34L20 34L20 33L15 33L15 36L18 36L18 37L22 37L22 38L24 38L24 39L25 39L25 40L21 40L21 39L16 39L16 42L19 42L19 43L22 43L22 44L24 44L24 45L26 45L26 46L29 46L29 48L25 48L25 47L22 47L22 46L17 46L17 49L22 49L22 50L25 50L25 51L28 51L28 52L30 52L30 55L26 55L26 54L25 54L25 53L22 53L22 52L18 52L18 54L17 54L17 55L15 55L15 51L6 51L6 50L5 50L5 48L13 48L13 45L9 45L9 44L4 44L4 41L12 41L12 38L2 38L2 34L8 34L8 35L11 35L11 31L1 31L1 27L6 27L6 28L7 28L7 29L11 29L11 28L10 28L10 25L5 25L5 24L0 24L0 21L6 21L6 22L9 22L9 18L1 18L1 17L-1 17L-1 15L7 15L7 13L6 13L6 12L3 12L3 11L-14 11L-14 12L-19 12L-19 13L-20 13L-20 14L-22 14L-22 15L-24 15L-24 16L-25 16L-25 17L-27 17L-27 18L-28 18L-28 19L-29 19L-29 22L-26 22L-26 21L-25 21L-25 20L-24 20L-24 19L-22 19L-22 18L-21 18L-21 17L-19 17L-19 16L-15 16L-15 15L-6 15L-6 16L-8 16L-8 17L-10 17L-10 18L-15 18L-15 19L-17 19L-17 20L-21 20L-21 21L-22 21L-22 22L-24 22L-24 23L-26 23L-26 24L-27 24L-27 25L-28 25L-28 28L-29 28L-29 30L-31 30L-31 27L-30 27L-30 25L-32 25L-32 21L-31 21L-31 20L-30 20L-30 18L-32 18L-32 15L-31 15L-31 14L-30 14L-30 13L-29 13L-29 15L-26 15L-26 14L-25 14L-25 13L-23 13L-23 12L-20 12L-20 11L-19 11L-19 10L-16 10L-16 9L-15 9L-15 8L3 8L3 9L6 9L6 6L3 6L3 5L-2 5L-2 4L-3 4L-3 1L0 1L0 0z" stroke="none" fill="#717272" fill-rule="nonzero" />
    <path transform="matrix(1 0 0 1 665 396)"  d="M0 0L5 0L5 2L4 2L4 3L2 3L2 4L-2 4L-2 5L-4 5L-4 6L-6 6L-6 7L-7 7L-7 8L-9 8L-9 12L-6 12L-6 11L-5 11L-5 10L-3 10L-3 9L-2 9L-2 8L2 8L2 7L5 7L5 10L2 10L2 11L0 11L0 12L-3 12L-3 13L-5 13L-5 14L-7 14L-7 15L-8 15L-8 18L-7 18L-7 19L-5 19L-5 18L-2 18L-2 17L-1 17L-1 16L1 16L1 15L4 15L4 14L7 14L7 22L6 22L6 25L5 25L5 26L4 26L4 28L3 28L3 29L2 29L2 30L-4 30L-4 29L-7 29L-7 30L-8 30L-8 34L-10 34L-10 39L-11 39L-11 44L-12 44L-12 45L-14 45L-14 44L-17 44L-17 43L-18 43L-18 40L-19 40L-19 39L-20 39L-20 30L-19 30L-19 29L-18 29L-18 28L-17 28L-17 27L-16 27L-16 26L-15 26L-15 25L-13 25L-13 21L-16 21L-16 22L-17 22L-17 23L-18 23L-18 24L-19 24L-19 26L-21 26L-21 24L-20 24L-20 22L-19 22L-19 21L-18 21L-18 20L-16 20L-16 19L-15 19L-15 15L-17 15L-17 16L-18 16L-18 17L-19 17L-19 18L-20 18L-20 20L-21 20L-21 21L-23 21L-23 18L-22 18L-22 17L-21 17L-21 16L-20 16L-20 15L-19 15L-19 14L-18 14L-18 13L-17 13L-17 12L-16 12L-16 9L-18 9L-18 10L-19 10L-19 11L-20 11L-20 12L-21 12L-21 14L-23 14L-23 11L-22 11L-22 10L-21 10L-21 9L-20 9L-20 8L-19 8L-19 7L-18 7L-18 6L-17 6L-17 8L-16 8L-16 7L-14 7L-14 5L-13 5L-13 4L-12 4L-12 2L-10 2L-10 4L-9 4L-9 5L-6 5L-6 3L-4 3L-4 2L-2 2L-2 1L0 1L0 0z" stroke="none" fill="#C6C7C6" fill-rule="nonzero" />
    <path transform="matrix(1 0 0 1 645 435)"  d="M0 0L1 0L1 1L2 1L2 4L3 4L3 5L4 5L4 6L5 6L5 7L6 7L6 8L8 8L8 9L13 9L13 12L14 12L14 13L15 13L15 14L16 14L16 16L17 16L17 19L19 19L19 17L20 17L20 16L21 16L21 15L25 15L25 16L26 16L26 17L27 17L27 20L26 20L26 19L25 19L25 18L21 18L21 27L22 27L22 30L24 30L24 29L25 29L25 28L26 28L26 27L27 27L27 23L29 23L29 24L30 24L30 22L32 22L32 24L35 24L35 13L40 13L40 15L39 15L39 16L40 16L40 17L41 17L41 20L37 20L37 23L38 23L38 26L37 26L37 32L36 32L36 33L33 33L33 34L32 34L32 35L24 35L24 36L23 36L23 41L21 41L21 42L20 42L20 48L19 48L19 55L18 55L18 92L19 92L19 93L23 93L23 94L25 94L25 95L28 95L28 96L37 96L37 97L36 97L36 98L28 98L28 100L23 100L23 96L17 96L17 94L14 94L14 91L13 91L13 90L12 90L12 81L13 81L13 80L14 80L14 58L15 58L15 47L17 47L17 41L19 41L19 39L21 39L21 36L22 36L22 34L20 34L20 33L19 33L19 31L17 31L17 24L15 24L15 20L14 20L14 16L13 16L13 15L12 15L12 11L8 11L8 10L7 10L7 9L5 9L5 8L3 8L3 6L1 6L1 3L0 3L0 0z" stroke="none" fill="#262626" fill-rule="nonzero" />
    <path transform="matrix(1 0 0 1 453 553)"  d="M0 0L2 0L2 1L4 1L4 2L5 2L5 6L7 6L7 5L10 5L10 4L11 4L11 2L12 2L12 1L14 1L14 0L17 0L17 1L18 1L18 2L19 2L19 3L20 3L20 7L19 7L19 8L24 8L24 7L27 7L27 6L28 6L28 4L29 4L29 2L30 2L30 1L31 1L31 2L32 2L32 3L31 3L31 5L30 5L30 6L31 6L31 7L30 7L30 8L29 8L29 12L31 12L31 11L32 11L32 10L33 10L33 9L34 9L34 8L35 8L35 7L36 7L36 6L37 6L37 5L38 5L38 3L39 3L39 2L40 2L40 1L41 1L41 2L42 2L42 3L41 3L41 5L40 5L40 7L42 7L42 8L47 8L47 7L51 7L51 6L54 6L54 5L55 5L55 3L57 3L57 2L59 2L59 1L61 1L61 2L63 2L63 3L64 3L64 6L63 6L63 8L62 8L62 9L60 9L60 10L59 10L59 11L56 11L56 12L55 12L55 13L58 13L58 14L60 14L60 13L65 13L65 12L67 12L67 11L69 11L69 10L71 10L71 9L72 9L72 8L74 8L74 7L75 7L75 6L78 6L78 8L77 8L77 9L75 9L75 10L73 10L73 11L72 11L72 12L70 12L70 13L68 13L68 14L66 14L66 15L62 15L62 16L57 16L57 15L54 15L54 14L53 14L53 12L52 12L52 9L50 9L50 10L41 10L41 9L39 9L39 8L38 8L38 9L37 9L37 10L36 10L36 11L35 11L35 12L33 12L33 13L32 13L32 14L30 14L30 15L27 15L27 13L26 13L26 11L27 11L27 10L22 10L22 11L19 11L19 10L18 10L18 11L17 11L17 12L16 12L16 13L14 13L14 14L11 14L11 13L10 13L10 12L9 12L9 11L8 11L8 8L4 8L4 10L3 10L3 11L2 11L2 12L1 12L1 13L0 13L0 14L-4 14L-4 13L-5 13L-5 12L-6 12L-6 10L-7 10L-7 9L-11 9L-11 10L-14 10L-14 9L-17 9L-17 8L-18 8L-18 7L-19 7L-19 6L-20 6L-20 5L-21 5L-21 4L-23 4L-23 5L-24 5L-24 6L-25 6L-25 7L-26 7L-26 8L-27 8L-27 9L-28 9L-28 10L-29 10L-29 11L-30 11L-30 13L-31 13L-31 14L-32 14L-32 15L-33 15L-33 14L-34 14L-34 12L-33 12L-33 10L-32 10L-32 8L-31 8L-31 6L-30 6L-30 4L-29 4L-29 2L-28 2L-28 1L-26 1L-26 3L-27 3L-27 4L-25 4L-25 3L-24 3L-24 2L-22 2L-22 1L-20 1L-20 2L-19 2L-19 3L-18 3L-18 5L-17 5L-17 6L-15 6L-15 7L-9 7L-9 6L-5 6L-5 5L-4 5L-4 3L-3 3L-3 2L-2 2L-2 1L0 1L0 0zM-1 3L-1 4L-2 4L-2 5L-1 5L-1 6L3 6L3 4L2 4L2 3zM14 3L14 4L13 4L13 6L14 6L14 7L16 7L16 8L17 8L17 5L18 5L18 4L17 4L17 3zM59 4L59 5L57 5L57 6L56 6L56 7L55 7L55 9L57 9L57 8L59 8L59 7L60 7L60 6L61 6L61 4zM-4 7L-4 11L-1 11L-1 10L1 10L1 8L-3 8L-3 7zM11 8L11 11L14 11L14 9L12 9L12 8z" stroke="none" fill="#FF9307" fill-rule="nonzero" />
    <path transform="matrix(1 0 0 1 416 518)"  d="M0 0L7 0L7 1L9 1L9 2L11 2L11 3L12 3L12 5L13 5L13 8L14 8L14 10L13 10L13 14L12 14L12 17L11 17L11 19L10 19L10 20L9 20L9 21L8 21L8 23L7 23L7 24L6 24L6 25L5 25L5 26L4 26L4 27L3 27L3 28L1 28L1 29L0 29L0 30L-2 30L-2 31L-4 31L-4 32L-6 32L-6 33L-9 33L-9 34L-15 34L-15 33L-14 33L-14 32L-12 32L-12 31L-8 31L-8 30L-6 30L-6 29L-4 29L-4 28L-2 28L-2 27L0 27L0 26L1 26L1 25L2 25L2 24L3 24L3 23L4 23L4 22L5 22L5 21L6 21L6 20L7 20L7 19L8 19L8 17L9 17L9 15L10 15L10 13L11 13L11 6L10 6L10 5L9 5L9 4L8 4L8 3L-2 3L-2 4L-5 4L-5 5L-7 5L-7 6L-9 6L-9 7L-10 7L-10 8L-12 8L-12 9L-13 9L-13 10L-15 10L-15 11L-16 11L-16 12L-17 12L-17 13L-19 13L-19 14L-20 14L-20 15L-21 15L-21 16L-22 16L-22 17L-23 17L-23 18L-24 18L-24 19L-25 19L-25 20L-26 20L-26 21L-27 21L-27 22L-28 22L-28 23L-29 23L-29 25L-30 25L-30 26L-31 26L-31 27L-32 27L-32 29L-33 29L-33 30L-34 30L-34 32L-35 32L-35 34L-36 34L-36 35L-37 35L-37 38L-38 38L-38 40L-39 40L-39 42L-40 42L-40 46L-41 46L-41 51L-42 51L-42 56L-41 56L-41 59L-40 59L-40 61L-39 61L-39 62L-38 62L-38 63L-37 63L-37 64L-36 64L-36 65L-28 65L-28 64L-25 64L-25 63L-23 63L-23 62L-21 62L-21 61L-20 61L-20 60L-18 60L-18 59L-17 59L-17 58L-16 58L-16 57L-15 57L-15 56L-13 56L-13 55L-12 55L-12 54L-11 54L-11 53L-10 53L-10 52L-9 52L-9 51L-8 51L-8 49L-7 49L-7 48L-6 48L-6 47L-5 47L-5 46L-13 46L-13 44L-12 44L-12 43L1 43L1 45L0 45L0 46L-2 46L-2 48L-3 48L-3 51L-4 51L-4 53L-5 53L-5 55L-6 55L-6 57L-7 57L-7 59L-8 59L-8 61L-9 61L-9 63L-10 63L-10 65L-11 65L-11 67L-12 67L-12 68L-13 68L-13 67L-14 67L-14 66L-13 66L-13 63L-12 63L-12 61L-11 61L-11 59L-10 59L-10 57L-9 57L-9 55L-10 55L-10 56L-11 56L-11 57L-12 57L-12 58L-13 58L-13 59L-14 59L-14 60L-15 60L-15 61L-17 61L-17 62L-18 62L-18 63L-20 63L-20 64L-21 64L-21 65L-23 65L-23 66L-26 66L-26 67L-30 67L-30 68L-34 68L-34 67L-37 67L-37 66L-39 66L-39 65L-40 65L-40 64L-41 64L-41 62L-42 62L-42 61L-43 61L-43 58L-44 58L-44 48L-43 48L-43 44L-42 44L-42 41L-41 41L-41 38L-40 38L-40 36L-39 36L-39 34L-38 34L-38 32L-37 32L-37 30L-36 30L-36 29L-35 29L-35 27L-34 27L-34 26L-33 26L-33 24L-32 24L-32 23L-31 23L-31 22L-30 22L-30 21L-29 21L-29 20L-28 20L-28 18L-27 18L-27 17L-25 17L-25 16L-24 16L-24 15L-23 15L-23 14L-22 14L-22 13L-21 13L-21 12L-20 12L-20 11L-19 11L-19 10L-17 10L-17 9L-16 9L-16 8L-15 8L-15 7L-13 7L-13 6L-12 6L-12 5L-10 5L-10 4L-8 4L-8 3L-6 3L-6 2L-4 2L-4 1L0 1L0 0zM-9 54L-9 55L-8 55L-8 54z" stroke="none" fill="#FF9307" fill-rule="nonzero" />
    <path transform="matrix(1 0 0 1 565 532)"  d="M0 0L2 0L2 3L1 3L1 5L0 5L0 7L-1 7L-1 9L-2 9L-2 12L-3 12L-3 14L-4 14L-4 16L-5 16L-5 18L-6 18L-6 20L-7 20L-7 22L-8 22L-8 24L-9 24L-9 26L-10 26L-10 29L-11 29L-11 32L0 32L0 31L3 31L3 30L4 30L4 29L6 29L6 28L8 28L8 27L10 27L10 25L11 25L11 23L12 23L12 22L14 22L14 25L15 25L15 24L16 24L16 23L17 23L17 22L18 22L18 21L20 21L20 20L25 20L25 21L26 21L26 23L25 23L25 25L26 25L26 24L27 24L27 23L29 23L29 22L32 22L32 23L33 23L33 24L34 24L34 26L33 26L33 30L32 30L32 32L33 32L33 33L35 33L35 32L37 32L37 31L39 31L39 30L41 30L41 29L43 29L43 28L44 28L44 27L47 27L47 29L46 29L46 30L44 30L44 31L42 31L42 32L40 32L40 33L38 33L38 34L36 34L36 35L31 35L31 33L30 33L30 28L31 28L31 25L29 25L29 26L28 26L28 27L27 27L27 28L26 28L26 29L25 29L25 30L24 30L24 31L23 31L23 32L22 32L22 33L21 33L21 34L20 34L20 35L19 35L19 36L18 36L18 32L19 32L19 30L20 30L20 28L21 28L21 26L22 26L22 24L23 24L23 22L22 22L22 23L20 23L20 24L19 24L19 25L17 25L17 26L16 26L16 27L15 27L15 28L14 28L14 29L13 29L13 30L12 30L12 31L11 31L11 32L10 32L10 34L9 34L9 35L8 35L8 36L7 36L7 35L6 35L6 33L7 33L7 31L6 31L6 32L4 32L4 33L2 33L2 34L-2 34L-2 35L-10 35L-10 34L-11 34L-11 38L-12 38L-12 42L-13 42L-13 46L-14 46L-14 48L-15 48L-15 50L-16 50L-16 52L-17 52L-17 54L-21 54L-21 48L-20 48L-20 45L-19 45L-19 41L-18 41L-18 39L-17 39L-17 36L-16 36L-16 34L-15 34L-15 29L-13 29L-13 27L-12 27L-12 25L-11 25L-11 23L-10 23L-10 21L-9 21L-9 18L-8 18L-8 16L-7 16L-7 14L-6 14L-6 12L-5 12L-5 10L-4 10L-4 8L-3 8L-3 6L-2 6L-2 4L-1 4L-1 2L0 2L0 0zM13 25L13 26L14 26L14 25zM-15 38L-15 40L-14 40L-14 38zM-16 40L-16 43L-17 43L-17 46L-18 46L-18 49L-17 49L-17 47L-16 47L-16 44L-15 44L-15 40zM-19 50L-19 51L-18 51L-18 50z" stroke="none" fill="#FF9307" fill-rule="nonzero" />
    <path transform="matrix(1 0 0 1 688 408)"  d="M0 0L4 0L4 1L18 1L18 2L19 2L19 3L20 3L20 4L25 4L25 17L24 17L24 21L22 21L22 24L21 24L21 25L20 25L20 27L19 27L19 28L18 28L18 29L17 29L17 30L16 30L16 31L14 31L14 30L12 30L12 28L13 28L13 26L14 26L14 25L15 25L15 24L16 24L16 22L17 22L17 19L18 19L18 18L19 18L19 9L17 9L17 16L16 16L16 19L15 19L15 21L14 21L14 23L13 23L13 24L12 24L12 26L11 26L11 27L10 27L10 28L9 28L9 29L7 29L7 27L8 27L8 25L9 25L9 24L10 24L10 22L11 22L11 20L12 20L12 19L13 19L13 16L14 16L14 7L12 7L12 13L11 13L11 18L10 18L10 19L9 19L9 21L8 21L8 24L6 24L6 26L5 26L5 27L4 27L4 28L1 28L1 26L2 26L2 25L3 25L3 24L4 24L4 22L5 22L5 20L6 20L6 17L7 17L7 15L8 15L8 11L9 11L9 5L7 5L7 6L3 6L3 4L2 4L2 3L1 3L1 2L0 2L0 0z" stroke="none" fill="#AAACAB" fill-rule="nonzero" />
    <path transform="matrix(1 0 0 1 695 413)"  d="M0 0L2 0L2 6L1 6L1 10L0 10L0 12L-1 12L-1 15L-2 15L-2 17L-3 17L-3 19L-4 19L-4 20L-5 20L-5 21L-6 21L-6 23L-3 23L-3 22L-2 22L-2 21L-1 21L-1 19L1 19L1 16L2 16L2 14L3 14L3 13L4 13L4 8L5 8L5 2L7 2L7 11L6 11L6 14L5 14L5 15L4 15L4 17L3 17L3 19L2 19L2 20L1 20L1 22L0 22L0 24L2 24L2 23L3 23L3 25L4 25L4 29L-1 29L-1 27L0 27L0 26L2 26L2 25L-2 25L-2 26L-3 26L-3 27L-5 27L-5 28L-4 28L-4 29L-8 29L-8 28L-26 28L-26 26L-25 26L-25 25L-24 25L-24 24L-22 24L-22 23L-20 23L-20 21L-18 21L-18 19L-17 19L-17 17L-16 17L-16 16L-15 16L-15 13L-14 13L-14 9L-13 9L-13 8L-12 8L-12 3L-10 3L-10 9L-11 9L-11 11L-12 11L-12 14L-13 14L-13 17L-14 17L-14 18L-15 18L-15 20L-16 20L-16 21L-17 21L-17 22L-18 22L-18 24L-19 24L-19 25L-20 25L-20 26L-18 26L-18 25L-17 25L-17 24L-15 24L-15 23L-14 23L-14 22L-13 22L-13 21L-12 21L-12 20L-11 20L-11 19L-10 19L-10 17L-9 17L-9 15L-8 15L-8 14L-7 14L-7 10L-6 10L-6 3L-3 3L-3 1L0 1L0 0z" stroke="none" fill="#181817" fill-rule="nonzero" />
    <path transform="matrix(1 0 0 1 665 477)"  d="M0 0L5 0L5 10L4 10L4 25L3 25L3 38L4 38L4 39L5 39L5 41L6 41L6 42L7 42L7 44L8 44L8 45L9 45L9 46L10 46L10 49L11 49L11 50L10 50L10 52L7 52L7 51L-1 51L-1 50L-2 50L-2 13L-1 13L-1 6L0 6L0 0z" stroke="none" fill="#DDDFDE" fill-rule="nonzero" />
    <path transform="matrix(1 0 0 1 667 364)"  d="M0 0L17 0L17 1L20 1L20 2L21 2L21 4L13 4L13 6L15 6L15 7L23 7L23 11L20 11L20 10L14 10L14 12L11 12L11 13L4 13L4 14L0 14L0 13L1 13L1 12L-5 12L-5 13L-7 13L-7 14L-8 14L-8 15L-10 15L-10 16L-11 16L-11 17L-12 17L-12 18L-14 18L-14 14L-13 14L-13 13L-12 13L-12 12L-10 12L-10 11L-8 11L-8 10L-7 10L-7 9L-3 9L-3 8L-1 8L-1 7L4 7L4 6L6 6L6 5L8 5L8 4L-1 4L-1 5L-5 5L-5 6L-7 6L-7 7L-8 7L-8 8L-10 8L-10 9L-11 9L-11 10L-12 10L-12 11L-15 11L-15 8L-14 8L-14 7L-13 7L-13 6L-11 6L-11 5L-10 5L-10 4L-8 4L-8 3L-6 3L-6 2L-5 2L-5 1L0 1L0 0z" stroke="none" fill="#131313" fill-rule="nonzero" />
    <path transform="matrix(1 0 0 1 668 346)"  d="M0 0L3 0L3 1L4 1L4 2L11 2L11 3L12 3L12 4L13 4L13 6L15 6L15 5L14 5L14 3L17 3L17 4L18 4L18 5L19 5L19 7L20 7L20 5L23 5L23 6L24 6L24 9L26 9L26 8L28 8L28 9L29 9L29 12L30 12L30 13L28 13L28 12L27 12L27 11L23 11L23 10L22 10L22 8L20 8L20 9L17 9L17 8L16 8L16 7L13 7L13 8L10 8L10 11L11 11L11 12L16 12L16 13L19 13L19 16L16 16L16 15L-2 15L-2 16L-3 16L-3 17L-6 17L-6 18L-7 18L-7 19L-10 19L-10 20L-12 20L-12 21L-13 21L-13 22L-16 22L-16 19L-15 19L-15 18L-14 18L-14 17L-12 17L-12 16L-11 16L-11 15L-9 15L-9 14L-6 14L-6 13L-4 13L-4 12L-1 12L-1 11L8 11L8 5L7 5L7 6L6 6L6 7L2 7L2 5L1 5L1 4L0 4L0 2L-5 2L-5 1L0 1L0 0z" stroke="none" fill="#5C5B5B" fill-rule="nonzero" />
    <path transform="matrix(1 0 0 1 678 477)"  d="M0 0L1 0L1 2L0 2L0 44L6 44L6 45L7 45L7 47L1 47L1 48L-2 48L-2 47L-3 47L-3 46L-4 46L-4 45L-5 45L-5 44L-6 44L-6 42L-7 42L-7 41L-8 41L-8 39L-9 39L-9 26L-8 26L-8 38L-7 38L-7 26L-6 26L-6 24L-5 24L-5 23L-4 23L-4 19L-3 19L-3 4L-2 4L-2 3L-1 3L-1 1L0 1L0 0z" stroke="none" fill="#3A3736" fill-rule="nonzero" />
    <path transform="matrix(1 0 0 1 692 450)"  d="M0 0L1 0L1 13L0 13L0 15L-1 15L-1 17L-2 17L-2 19L-5 19L-5 21L0 21L0 23L-11 23L-11 21L-10 21L-10 19L-11 19L-11 20L-12 20L-12 21L-14 21L-14 24L-15 24L-15 25L-16 25L-16 26L-17 26L-17 27L-21 27L-21 43L-22 43L-22 53L-23 53L-23 65L-24 65L-24 52L-23 52L-23 37L-22 37L-22 27L-26 27L-26 26L-24 26L-24 21L-23 21L-23 20L-15 20L-15 19L-14 19L-14 18L-11 18L-11 17L-10 17L-10 11L-9 11L-9 9L-4 9L-4 10L-1 10L-1 12L0 12L0 0z" stroke="none" fill="#636261" fill-rule="nonzero" />
    <path transform="matrix(1 0 0 1 674 441)"  d="M0 0L13 0L13 1L17 1L17 9L18 9L18 21L17 21L17 19L14 19L14 18L9 18L9 17L8 17L8 14L12 14L12 11L11 11L11 10L10 10L10 9L11 9L11 7L6 7L6 18L3 18L3 13L2 13L2 5L0 5L0 0z" stroke="none" fill="#B7B8B7" fill-rule="nonzero" />
    <path transform="matrix(1 0 0 1 708 390)"  d="M0 0L1 0L1 4L2 4L2 6L4 6L4 11L5 11L5 22L0 22L0 21L-1 21L-1 20L-2 20L-2 19L-16 19L-16 18L-20 18L-20 17L-14 17L-14 16L-13 16L-13 15L-22 15L-22 13L-21 13L-21 14L-12 14L-12 18L-10 18L-10 17L-9 17L-9 15L-5 15L-5 16L-2 16L-2 17L-1 17L-1 18L3 18L3 15L1 15L1 14L-2 14L-2 13L-5 13L-5 12L-10 12L-10 9L-5 9L-5 10L-2 10L-2 11L2 11L2 9L-1 9L-1 8L-3 8L-3 7L-5 7L-5 6L-8 6L-8 5L-11 5L-11 2L-6 2L-6 3L-2 3L-2 2L-3 2L-3 1L0 1L0 0z" stroke="none" fill="#121312" fill-rule="nonzero" />
    <path transform="matrix(1 0 0 1 683 387)"  d="M0 0L6 0L6 1L1 1L1 3L11 3L11 7L13 7L13 5L14 5L14 8L17 8L17 9L20 9L20 10L22 10L22 11L24 11L24 12L27 12L27 14L23 14L23 13L20 13L20 12L15 12L15 15L20 15L20 16L23 16L23 17L26 17L26 18L28 18L28 21L24 21L24 20L23 20L23 19L20 19L20 18L16 18L16 20L15 20L15 21L13 21L13 17L4 17L4 16L3 16L3 14L11 14L11 11L7 11L7 10L2 10L2 7L10 7L10 4L0 4L0 0z" stroke="none" fill="#828483" fill-rule="nonzero" />
    <path transform="matrix(1 0 0 1 681 469)"  d="M0 0L1 0L1 2L0 2L0 4L11 4L11 2L12 2L12 5L13 5L13 17L12 17L12 6L0 6L0 7L-2 7L-2 8L-3 8L-3 9L-4 9L-4 11L-5 11L-5 12L-6 12L-6 27L-7 27L-7 31L-8 31L-8 32L-9 32L-9 34L-10 34L-10 46L-11 46L-11 24L-10 24L-10 8L-6 8L-6 7L-5 7L-5 6L-4 6L-4 5L-3 5L-3 2L-1 2L-1 1L0 1L0 0z" stroke="none" fill="#373534" fill-rule="nonzero" />
    <path transform="matrix(1 0 0 1 661 490)"  d="M0 0L1 0L1 37L3 37L3 38L7 38L7 39L9 39L9 40L12 40L12 41L21 41L21 42L20 42L20 43L12 43L12 45L7 45L7 41L1 41L1 39L-2 39L-2 36L-3 36L-3 35L-4 35L-4 26L-3 26L-3 25L-2 25L-2 9L0 9L0 0z" stroke="none" fill="#080707" fill-rule="nonzero" />
    <path transform="matrix(1 0 0 1 644 373)"  d="M0 0L2 0L2 4L1 4L1 6L3 6L3 9L2 9L2 10L1 10L1 11L0 11L0 12L-1 12L-1 13L-2 13L-2 14L-3 14L-3 16L-4 16L-4 17L-5 17L-5 19L-3 19L-3 18L-2 18L-2 16L-1 16L-1 15L0 15L0 14L1 14L1 13L3 13L3 16L2 16L2 17L1 17L1 18L0 18L0 19L-1 19L-1 20L-2 20L-2 21L-3 21L-3 24L-2 24L-2 23L-1 23L-1 22L0 22L0 21L1 21L1 20L2 20L2 19L3 19L3 23L2 23L2 24L1 24L1 25L0 25L0 26L-1 26L-1 27L-2 27L-2 26L-4 26L-4 27L-5 27L-5 32L-6 32L-6 24L-7 24L-7 4L-6 4L-6 3L-5 3L-5 6L-3 6L-3 4L-2 4L-2 2L-1 2L-1 1L0 1L0 0z" stroke="none" fill="#141414" fill-rule="nonzero" />
    <path transform="matrix(1 0 0 1 692 522)"  d="M0 0L2 0L2 7L-1 7L-1 8L-4 8L-4 9L-5 9L-5 11L-3 11L-3 13L-19 13L-19 11L-11 11L-11 10L-10 10L-10 9L-19 9L-19 8L-22 8L-22 7L-24 7L-24 6L-20 6L-20 7L-17 7L-17 5L-16 5L-16 4L-17 4L-17 2L-16 2L-16 3L-13 3L-13 2L-3 2L-3 1L0 1L0 0z" stroke="none" fill="#AEB0AF" fill-rule="nonzero" />
    <path transform="matrix(1 0 0 1 668 394)"  d="M0 0L7 0L7 2L6 2L6 3L5 3L5 4L3 4L3 5L2 5L2 6L1 6L1 7L7 7L7 10L6 10L6 11L4 11L4 12L3 12L3 13L2 13L2 14L3 14L3 15L5 15L5 26L3 26L3 24L4 24L4 16L1 16L1 17L-2 17L-2 18L-4 18L-4 19L-5 19L-5 20L-8 20L-8 21L-10 21L-10 20L-11 20L-11 17L-10 17L-10 16L-8 16L-8 15L-6 15L-6 14L-3 14L-3 13L-1 13L-1 12L2 12L2 9L-1 9L-1 10L-5 10L-5 11L-6 11L-6 12L-8 12L-8 13L-9 13L-9 14L-12 14L-12 10L-10 10L-10 9L-9 9L-9 8L-7 8L-7 7L-5 7L-5 6L-1 6L-1 5L1 5L1 4L2 4L2 2L-1 2L-1 1L0 1L0 0z" stroke="none" fill="#272524" fill-rule="nonzero" />
    <path transform="matrix(1 0 0 1 685 475)"  d="M0 0L8 0L8 11L9 11L9 32L8 32L8 44L5 44L5 43L6 43L6 23L1 23L1 25L2 25L2 28L-1 28L-1 18L6 18L6 3L4 3L4 6L3 6L3 5L2 5L2 2L-1 2L-1 1L0 1L0 0z" stroke="none" fill="#9D9D9D" fill-rule="nonzero" />
    <path transform="matrix(1 0 0 1 669 410)"  d="M0 0L3 0L3 8L2 8L2 11L1 11L1 12L0 12L0 14L-1 14L-1 15L-2 15L-2 16L-8 16L-8 15L-9 15L-9 14L-11 14L-11 13L-12 13L-12 12L-13 12L-13 11L-14 11L-14 7L-11 7L-11 6L-9 6L-9 4L-6 4L-6 3L-5 3L-5 2L-3 2L-3 1L0 1L0 0z" stroke="none" fill="#D7D9D8" fill-rule="nonzero" />
    <path transform="matrix(1 0 0 1 665 378)"  d="M0 0L2 0L2 1L1 1L1 2L-1 2L-1 3L-2 3L-2 4L4 4L4 3L10 3L10 4L9 4L9 5L7 5L7 6L4 6L4 7L3 7L3 8L1 8L1 9L0 9L0 10L5 10L5 9L11 9L11 12L7 12L7 13L6 13L6 14L4 14L4 13L5 13L5 12L6 12L6 11L0 11L0 12L-1 12L-1 13L-5 13L-5 14L-6 14L-6 15L-8 15L-8 16L-10 16L-10 15L-11 15L-11 13L-10 13L-10 12L-8 12L-8 11L-7 11L-7 10L-5 10L-5 9L-3 9L-3 8L-1 8L-1 7L2 7L2 6L3 6L3 5L-1 5L-1 6L-3 6L-3 7L-7 7L-7 8L-8 8L-8 9L-9 9L-9 10L-12 10L-12 6L-10 6L-10 5L-9 5L-9 4L-7 4L-7 3L-5 3L-5 2L-3 2L-3 1L0 1L0 0z" stroke="none" fill="#343231" fill-rule="nonzero" />
    <path transform="matrix(1 0 0 1 665 362)"  d="M0 0L7 0L7 2L2 2L2 3L-3 3L-3 4L-4 4L-4 5L-6 5L-6 6L-8 6L-8 7L-9 7L-9 8L-11 8L-11 9L-12 9L-12 10L-13 10L-13 13L-10 13L-10 12L-9 12L-9 11L-8 11L-8 10L-6 10L-6 9L-5 9L-5 8L-3 8L-3 7L1 7L1 6L10 6L10 7L8 7L8 8L6 8L6 9L1 9L1 10L-1 10L-1 11L-5 11L-5 12L-6 12L-6 13L-8 13L-8 14L-10 14L-10 15L-11 15L-11 16L-12 16L-12 19L-13 19L-13 21L-15 21L-15 18L-14 18L-14 16L-16 16L-16 12L-15 12L-15 11L-14 11L-14 9L-16 9L-16 6L-15 6L-15 5L-14 5L-14 4L-13 4L-13 6L-10 6L-10 5L-9 5L-9 4L-7 4L-7 3L-4 3L-4 2L-3 2L-3 1L0 1L0 0z" stroke="none" fill="#B1B3B2" fill-rule="nonzero" />
    <path transform="matrix(1 0 0 1 705 417)"  d="M0 0L2 0L2 9L1 9L1 10L0 10L0 13L-1 13L-1 15L-2 15L-2 16L-3 16L-3 17L-4 17L-4 19L-5 19L-5 21L-3 21L-3 22L-1 22L-1 21L0 21L0 20L1 20L1 19L2 19L2 18L3 18L3 16L4 16L4 15L5 15L5 12L7 12L7 8L8 8L8 15L7 15L7 16L6 16L6 18L5 18L5 19L4 19L4 21L2 21L2 23L-1 23L-1 24L-3 24L-3 26L-7 26L-7 27L-11 27L-11 28L-12 28L-12 29L-11 29L-11 31L-12 31L-12 33L-14 33L-14 24L-15 24L-15 23L-13 23L-13 22L-12 22L-12 21L-8 21L-8 22L-10 22L-10 23L-11 23L-11 25L-6 25L-6 21L-7 21L-7 18L-6 18L-6 17L-5 17L-5 15L-4 15L-4 14L-3 14L-3 12L-2 12L-2 10L-1 10L-1 7L0 7L0 0z" stroke="none" fill="#202020" fill-rule="nonzero" />
    <path transform="matrix(1 0 0 1 692 379)"  d="M0 0L2 0L2 4L8 4L8 5L11 5L11 6L14 6L14 8L15 8L15 9L12 9L12 8L9 8L9 7L4 7L4 10L7 10L7 11L11 11L11 12L13 12L13 13L14 13L14 14L10 14L10 13L4 13L4 15L2 15L2 11L-8 11L-8 9L0 9L0 5L-10 5L-10 1L-5 1L-5 2L-4 2L-4 3L0 3L0 0z" stroke="none" fill="#A5A6A6" fill-rule="nonzero" />
    <path transform="matrix(1 0 0 1 687 408)"  d="M0 0L1 0L1 2L2 2L2 3L3 3L3 4L4 4L4 6L5 6L5 8L2 8L2 15L1 15L1 19L0 19L0 20L-1 20L-1 22L-2 22L-2 24L-3 24L-3 25L-4 25L-4 26L-5 26L-5 27L-6 27L-6 28L-7 28L-7 29L-9 29L-9 30L-10 30L-10 31L-12 31L-12 30L-11 30L-11 29L-10 29L-10 27L-9 27L-9 26L-8 26L-8 25L-7 25L-7 23L-6 23L-6 22L-5 22L-5 19L-4 19L-4 16L-3 16L-3 14L-2 14L-2 8L-4 8L-4 7L-1 7L-1 4L0 4L0 0z" stroke="none" fill="#0E0B0A" fill-rule="nonzero" />
    <path transform="matrix(1 0 0 1 683 416)"  d="M0 0L2 0L2 6L1 6L1 8L0 8L0 11L-1 11L-1 14L-2 14L-2 15L-3 15L-3 17L-4 17L-4 18L-5 18L-5 19L-6 19L-6 21L-7 21L-7 22L-9 22L-9 23L-10 23L-10 24L5 24L5 23L8 23L8 22L9 22L9 21L10 21L10 20L11 20L11 19L12 19L12 21L14 21L14 20L15 20L15 22L16 22L16 26L11 26L11 24L12 24L12 23L14 23L14 22L10 22L10 23L9 23L9 24L7 24L7 25L8 25L8 26L4 26L4 25L-14 25L-14 23L-13 23L-13 22L-12 22L-12 21L-10 21L-10 20L-8 20L-8 18L-6 18L-6 16L-5 16L-5 14L-4 14L-4 13L-3 13L-3 10L-2 10L-2 6L-1 6L-1 5L0 5L0 0z" stroke="none" fill="#484848" fill-rule="nonzero" />
    <path transform="matrix(1 0 0 1 666 371)"  d="M0 0L6 0L6 1L5 1L5 2L12 2L12 3L15 3L15 5L12 5L12 6L5 6L5 7L1 7L1 6L2 6L2 5L-4 5L-4 6L-6 6L-6 7L-7 7L-7 8L-9 8L-9 9L-10 9L-10 10L-11 10L-11 11L-13 11L-13 7L-12 7L-12 6L-11 6L-11 5L-9 5L-9 4L-7 4L-7 3L-6 3L-6 2L-2 2L-2 1L0 1L0 0z" stroke="none" fill="#252423" fill-rule="nonzero" />
    <path transform="matrix(1 0 0 1 688 408)"  d="M0 0L4 0L4 1L18 1L18 2L19 2L19 3L20 3L20 4L23 4L23 15L21 15L21 7L16 7L16 5L13 5L13 6L10 6L10 5L7 5L7 6L3 6L3 4L2 4L2 3L1 3L1 2L0 2L0 0z" stroke="none" fill="#CBCDCC" fill-rule="nonzero" />
    <path transform="matrix(1 0 0 1 678 376)"  d="M0 0L3 0L3 1L8 1L8 2L13 2L13 5L14 5L14 6L10 6L10 5L9 5L9 4L4 4L4 7L3 7L3 6L2 6L2 5L1 5L1 7L-2 7L-2 8L-6 8L-6 7L-4 7L-4 6L-3 6L-3 5L-9 5L-9 6L-15 6L-15 5L-14 5L-14 4L-12 4L-12 3L-11 3L-11 2L-7 2L-7 1L0 1L0 0z" stroke="none" fill="#121111" fill-rule="nonzero" />
    <path transform="matrix(1 0 0 1 668 358)"  d="M0 0L10 0L10 1L19 1L19 4L16 4L16 3L-2 3L-2 4L-3 4L-3 5L-6 5L-6 6L-7 6L-7 7L-10 7L-10 8L-12 8L-12 9L-13 9L-13 10L-16 10L-16 7L-15 7L-15 6L-14 6L-14 5L-12 5L-12 4L-11 4L-11 3L-9 3L-9 2L-6 2L-6 1L0 1L0 0z" stroke="none" fill="#020202" fill-rule="nonzero" />
    <path transform="matrix(1 0 0 1 661 345)"  d="M0 0L18 0L18 2L10 2L10 1L7 1L7 2L2 2L2 3L0 3L0 4L-2 4L-2 5L-3 5L-3 6L-4 6L-4 7L-6 7L-6 8L-7 8L-7 9L-8 9L-8 10L-9 10L-9 11L-10 11L-10 12L-11 12L-11 13L-12 13L-12 14L-13 14L-13 15L-14 15L-14 17L-15 17L-15 18L-16 18L-16 19L-17 19L-17 21L-18 21L-18 22L-19 22L-19 25L-20 25L-20 27L-21 27L-21 28L-22 28L-22 31L-23 31L-23 32L-24 32L-24 29L-23 29L-23 24L-21 24L-21 21L-19 21L-19 19L-18 19L-18 16L-16 16L-16 15L-15 15L-15 13L-13 13L-13 11L-12 11L-12 10L-10 10L-10 8L-8 8L-8 7L-7 7L-7 5L-5 5L-5 4L-4 4L-4 3L-3 3L-3 2L0 2L0 0z" stroke="none" fill="#161716" fill-rule="nonzero" />
    <path transform="matrix(1 0 0 1 711 412)"  d="M0 0L2 0L2 13L1 13L1 17L-1 17L-1 20L-2 20L-2 21L-3 21L-3 23L-4 23L-4 24L-5 24L-5 25L-6 25L-6 26L-7 26L-7 27L-9 27L-9 26L-11 26L-11 24L-10 24L-10 22L-9 22L-9 21L-8 21L-8 20L-7 20L-7 18L-6 18L-6 15L-5 15L-5 14L-4 14L-4 15L-3 15L-3 14L-2 14L-2 12L-1 12L-1 15L0 15L0 0z" stroke="none" fill="#6C6C6C" fill-rule="nonzero" />
    <path transform="matrix(1 0 0 1 677 506)"  d="M0 0L1 0L1 15L7 15L7 16L8 16L8 18L2 18L2 19L-1 19L-1 18L-2 18L-2 17L-3 17L-3 16L-4 16L-4 15L-5 15L-5 13L-6 13L-6 12L-5 12L-5 9L-3 9L-3 2L-2 2L-2 3L-1 3L-1 2L0 2L0 0z" stroke="none" fill="#4F4E4E" fill-rule="nonzero" />
    <path transform="matrix(1 0 0 1 668 442)"  d="M0 0L4 0L4 7L5 7L5 9L6 9L6 11L4 11L4 10L3 10L3 9L2 9L2 8L-2 8L-2 9L-3 9L-3 10L-4 10L-4 12L-6 12L-6 9L-7 9L-7 7L-8 7L-8 3L-4 3L-4 2L-3 2L-3 1L0 1L0 0z" stroke="none" fill="#DDDFDE" fill-rule="nonzero" />
    <path transform="matrix(1 0 0 1 654 422)"  d="M0 0L3 0L3 1L4 1L4 2L6 2L6 3L4 3L4 4L3 4L3 8L1 8L1 13L0 13L0 18L-1 18L-1 19L-3 19L-3 18L-6 18L-6 17L-7 17L-7 14L-8 14L-8 13L-9 13L-9 4L-8 4L-8 11L-7 11L-7 10L-6 10L-6 11L-5 11L-5 15L-4 15L-4 13L-3 13L-3 15L-2 15L-2 9L-1 9L-1 5L0 5L0 0z" stroke="none" fill="#ABACAB" fill-rule="nonzero" />
    <path transform="matrix(1 0 0 1 662 477)"  d="M0 0L2 0L2 13L1 13L1 50L0 50L0 13L-1 13L-1 22L-3 22L-3 16L-2 16L-2 5L0 5L0 0z" stroke="none" fill="#242222" fill-rule="nonzero" />
    <path transform="matrix(1 0 0 1 687 442)"  d="M0 0L4 0L4 8L5 8L5 20L4 20L4 18L1 18L1 17L-4 17L-4 16L-5 16L-5 13L-1 13L-1 10L-2 10L-2 9L-3 9L-3 8L0 8L0 5L1 5L1 7L2 7L2 8L3 8L3 1L0 1L0 0z" stroke="none" fill="#CFD0CF" fill-rule="nonzero" />
    <path transform="matrix(1 0 0 1 681 353)"  d="M0 0L3 0L3 1L4 1L4 2L7 2L7 1L9 1L9 3L10 3L10 4L14 4L14 5L15 5L15 6L18 6L18 7L19 7L19 8L20 8L20 10L17 10L17 8L14 8L14 7L10 7L10 9L7 9L7 6L3 6L3 5L-2 5L-2 4L-3 4L-3 1L0 1L0 0z" stroke="none" fill="#CACBCA" fill-rule="nonzero" />
    <path transform="matrix(1 0 0 1 670 421)"  d="M0 0L1 0L1 2L0 2L0 10L-1 10L-1 14L-2 14L-2 17L0 17L0 18L-1 18L-1 20L-5 20L-5 21L-8 21L-8 19L-7 19L-7 16L-6 16L-6 7L-5 7L-5 6L-4 6L-4 5L-3 5L-3 4L-2 4L-2 3L-1 3L-1 1L0 1L0 0z" stroke="none" fill="#1D1413" fill-rule="nonzero" />
    <path transform="matrix(1 0 0 1 644 373)"  d="M0 0L2 0L2 4L1 4L1 6L3 6L3 9L2 9L2 10L1 10L1 11L0 11L0 12L-1 12L-1 13L-2 13L-2 14L-3 14L-3 16L-4 16L-4 14L-6 14L-6 12L-7 12L-7 4L-6 4L-6 3L-5 3L-5 6L-3 6L-3 4L-2 4L-2 2L-1 2L-1 1L0 1L0 0z" stroke="none" fill="#2C2C2C" fill-rule="nonzero" />
    <path transform="matrix(1 0 0 1 692 414)"  d="M0 0L2 0L2 1L1 1L1 8L0 8L0 13L-1 13L-1 15L-2 15L-2 16L-3 16L-3 18L-5 18L-5 20L-6 20L-6 21L-7 21L-7 22L-9 22L-9 23L-10 23L-10 24L-11 24L-11 25L-13 25L-13 23L-12 23L-12 22L-11 22L-11 21L-10 21L-10 20L-9 20L-9 19L-8 19L-8 18L-7 18L-7 16L-6 16L-6 14L-5 14L-5 13L-4 13L-4 9L-3 9L-3 2L0 2L0 0z" stroke="none" fill="#5A5857" fill-rule="nonzero" />
    <path transform="matrix(1 0 0 1 668 394)"  d="M0 0L7 0L7 2L6 2L6 3L5 3L5 4L3 4L3 5L2 5L2 6L1 6L1 7L7 7L7 10L6 10L6 11L4 11L4 10L5 10L5 8L-1 8L-1 10L-5 10L-5 11L-6 11L-6 12L-8 12L-8 13L-9 13L-9 14L-12 14L-12 10L-10 10L-10 9L-9 9L-9 8L-7 8L-7 7L-5 7L-5 6L-1 6L-1 5L1 5L1 4L2 4L2 2L-1 2L-1 1L0 1L0 0z" stroke="none" fill="#0D0A09" fill-rule="nonzero" />
    <path transform="matrix(1 0 0 1 668 471)"  d="M0 0L6 0L6 1L5 1L5 2L8 2L8 5L7 5L7 6L3 6L3 22L2 22L2 32L1 32L1 44L0 44L0 31L1 31L1 16L2 16L2 6L-2 6L-2 5L0 5L0 0z" stroke="none" fill="#737473" fill-rule="nonzero" />
    <path transform="matrix(1 0 0 1 697 413)"  d="M0 0L1 0L1 1L6 1L6 9L5 9L5 2L3 2L3 8L2 8L2 13L1 13L1 14L0 14L0 16L-1 16L-1 19L-3 19L-3 21L-4 21L-4 22L-5 22L-5 23L-8 23L-8 21L-7 21L-7 20L-6 20L-6 19L-5 19L-5 17L-4 17L-4 15L-3 15L-3 12L-2 12L-2 10L-1 10L-1 6L0 6L0 0z" stroke="none" fill="#8A8C8B" fill-rule="nonzero" />
    <path transform="matrix(1 0 0 1 658 425)"  d="M0 0L3 0L3 1L8 1L8 2L2 2L2 12L1 12L1 13L0 13L0 17L-1 17L-1 18L-3 18L-3 17L-8 17L-8 16L-9 16L-9 15L-7 15L-7 16L-5 16L-5 15L-4 15L-4 10L-3 10L-3 5L-1 5L-1 1L0 1L0 0z" stroke="none" fill="#979998" fill-rule="nonzero" />
    <path transform="matrix(1 0 0 1 666 450)"  d="M0 0L4 0L4 1L5 1L5 2L6 2L6 5L5 5L5 4L4 4L4 3L0 3L0 12L1 12L1 15L3 15L3 14L4 14L4 13L5 13L5 12L6 12L6 10L8 10L8 13L7 13L7 15L6 15L6 17L3 17L3 18L0 18L0 16L-1 16L-1 15L-2 15L-2 14L-3 14L-3 8L-4 8L-4 7L-3 7L-3 6L-2 6L-2 2L-1 2L-1 1L0 1L0 0z" stroke="none" fill="#040404" fill-rule="nonzero" />
    <path transform="matrix(1 0 0 1 665 486)"  d="M0 0L1 0L1 21L2 21L2 29L1 29L1 40L-1 40L-1 5L0 5L0 0z" stroke="none" fill="#E4E7E6" fill-rule="nonzero" />
    <path transform="matrix(1 0 0 1 662 376)"  d="M0 0L6 0L6 1L5 1L5 2L3 2L3 3L0 3L0 4L-2 4L-2 5L-4 5L-4 6L-6 6L-6 7L-7 7L-7 8L-9 8L-9 12L-6 12L-6 11L-5 11L-5 10L-4 10L-4 9L0 9L0 8L2 8L2 7L6 7L6 8L5 8L5 9L2 9L2 10L0 10L0 11L-2 11L-2 12L-4 12L-4 13L-5 13L-5 14L-6 14L-6 13L-8 13L-8 14L-11 14L-11 10L-10 10L-10 8L-12 8L-12 7L-10 7L-10 5L-9 5L-9 6L-7 6L-7 5L-6 5L-6 4L-5 4L-5 3L-3 3L-3 2L-2 2L-2 1L0 1L0 0z" stroke="none" fill="#C8CAC9" fill-rule="nonzero" />
    <path transform="matrix(1 0 0 1 661 348)"  d="M0 0L7 0L7 2L8 2L8 3L9 3L9 5L13 5L13 4L14 4L14 3L15 3L15 9L6 9L6 10L4 10L4 5L5 5L5 3L6 3L6 2L3 2L3 3L2 3L2 2L-1 2L-1 3L-3 3L-3 2L-2 2L-2 1L0 1L0 0z" stroke="none" fill="#C1C2C1" fill-rule="nonzero" />
    <path transform="matrix(1 0 0 1 700 415)"  d="M0 0L2 0L2 9L1 9L1 12L0 12L0 13L-1 13L-1 15L-2 15L-2 17L-3 17L-3 18L-4 18L-4 20L-6 20L-6 21L-7 21L-7 22L-8 22L-8 23L-9 23L-9 24L-12 24L-12 25L-18 25L-18 24L-16 24L-16 23L-15 23L-15 22L-13 22L-13 21L-12 21L-12 20L-11 20L-11 21L-8 21L-8 20L-7 20L-7 19L-6 19L-6 17L-4 17L-4 14L-3 14L-3 12L-2 12L-2 11L-1 11L-1 6L0 6L0 0z" stroke="none" fill="#252525" fill-rule="nonzero" />
    <path transform="matrix(1 0 0 1 664 350)"  d="M0 0L3 0L3 1L2 1L2 3L1 3L1 8L0 8L0 9L-2 9L-2 10L-5 10L-5 11L-7 11L-7 12L-8 12L-8 13L-9 13L-9 11L-11 11L-11 10L-10 10L-10 9L-9 9L-9 8L-8 8L-8 7L-7 7L-7 6L-6 6L-6 5L-5 5L-5 4L-4 4L-4 3L-3 3L-3 2L-2 2L-2 1L0 1L0 0z" stroke="none" fill="#DADBDA" fill-rule="nonzero" />
    <path transform="matrix(1 0 0 1 671 477)"  d="M0 0L1 0L1 1L2 1L2 2L3 2L3 3L2 3L2 24L1 24L1 26L0 26L0 38L-1 38L-1 16L0 16L0 0z" stroke="none" fill="#1E1A18" fill-rule="nonzero" />
    <path transform="matrix(1 0 0 1 695 493)"  d="M0 0L1 0L1 24L3 24L3 30L1 30L1 31L2 31L2 36L1 36L1 38L-5 38L-5 39L-6 39L-6 40L-8 40L-8 38L-7 38L-7 37L-4 37L-4 36L-1 36L-1 35L0 35L0 28L1 28L1 26L0 26L0 0z" stroke="none" fill="#111111" fill-rule="nonzero" />
    <path transform="matrix(1 0 0 1 686 401)"  d="M0 0L5 0L5 1L8 1L8 2L20 2L20 3L23 3L23 4L25 4L25 7L21 7L21 6L20 6L20 5L17 5L17 4L13 4L13 6L12 6L12 7L10 7L10 3L1 3L1 2L0 2L0 0z" stroke="none" fill="#ACADAD" fill-rule="nonzero" />
    <path transform="matrix(1 0 0 1 689 478)"  d="M0 0L2 0L2 15L-2 15L-2 14L-5 14L-5 13L0 13L0 9L-4 9L-4 8L-6 8L-6 4L-4 4L-4 3L0 3L0 0z" stroke="none" fill="#474847" fill-rule="nonzero" />
    <path transform="matrix(1 0 0 1 708 390)"  d="M0 0L1 0L1 4L2 4L2 6L4 6L4 8L2 8L2 9L-1 9L-1 8L-3 8L-3 7L-5 7L-5 6L-8 6L-8 5L-11 5L-11 2L-6 2L-6 3L-2 3L-2 2L-3 2L-3 1L0 1L0 0z" stroke="none" fill="#484848" fill-rule="nonzero" />
    <path transform="matrix(1 0 0 1 665 396)"  d="M0 0L5 0L5 2L4 2L4 3L2 3L2 4L-2 4L-2 5L-4 5L-4 6L-6 6L-6 7L-7 7L-7 8L-9 8L-9 12L-7 12L-7 13L-11 13L-11 10L-10 10L-10 7L-12 7L-12 2L-10 2L-10 4L-9 4L-9 5L-6 5L-6 3L-4 3L-4 2L-2 2L-2 1L0 1L0 0z" stroke="none" fill="#BABBBA" fill-rule="nonzero" />
    <path transform="matrix(1 0 0 1 649 417)"  d="M0 0L3 0L3 4L1 4L1 5L0 5L0 6L-1 6L-1 7L-2 7L-2 8L-3 8L-3 9L-4 9L-4 18L-6 18L-6 10L-7 10L-7 5L-6 5L-6 3L-5 3L-5 5L-3 5L-3 3L-2 3L-2 2L-1 2L-1 1L0 1L0 0z" stroke="none" fill="#282928" fill-rule="nonzero" />
    <path transform="matrix(1 0 0 1 671 370)"  d="M0 0L11 0L11 1L19 1L19 5L16 5L16 4L7 4L7 3L0 3L0 2L1 2L1 1L0 1L0 0z" stroke="none" fill="#131313" fill-rule="nonzero" />
    <path transform="matrix(1 0 0 1 680 368)"  d="M0 0L6 0L6 1L7 1L7 2L16 2L16 3L20 3L20 4L21 4L21 5L23 5L23 6L24 6L24 8L22 8L22 7L20 7L20 6L17 6L17 5L13 5L13 6L12 6L12 7L11 7L11 4L12 4L12 3L2 3L2 2L0 2L0 0z" stroke="none" fill="#AFB1B0" fill-rule="nonzero" />
    <path transform="matrix(1 0 0 1 687 529)"  d="M0 0L4 0L4 1L1 1L1 2L0 2L0 4L2 4L2 6L-14 6L-14 4L-6 4L-6 3L-5 3L-5 2L-9 2L-9 1L0 1L0 0z" stroke="none" fill="#747474" fill-rule="nonzero" />
    <path transform="matrix(1 0 0 1 675 442)"  d="M0 0L12 0L12 1L15 1L15 8L14 8L14 7L13 7L13 5L12 5L12 4L4 4L4 2L0 2L0 0z" stroke="none" fill="#E5E7E6" fill-rule="nonzero" />
    <path transform="matrix(1 0 0 1 652 400)"  d="M0 0L1 0L1 3L3 3L3 6L2 6L2 7L1 7L1 8L0 8L0 9L-1 9L-1 10L-3 10L-3 5L-5 5L-5 6L-6 6L-6 7L-7 7L-7 8L-8 8L-8 10L-10 10L-10 7L-9 7L-9 6L-8 6L-8 5L-7 5L-7 4L-6 4L-6 3L-5 3L-5 2L-4 2L-4 4L-3 4L-3 3L-1 3L-1 1L0 1L0 0z" stroke="none" fill="#DEE0DF" fill-rule="nonzero" />
    <path transform="matrix(1 0 0 1 679 476)"  d="M0 0L1 0L1 2L4 2L4 4L3 4L3 8L2 8L2 15L0 15L0 22L-1 22L-1 3L0 3L0 0z" stroke="none" fill="#51504E" fill-rule="nonzero" />
    <path transform="matrix(1 0 0 1 686 498)"  d="M0 0L5 0L5 19L3 19L3 16L2 16L2 15L3 15L3 6L0 6L0 5L1 5L1 2L0 2L0 0z" stroke="none" fill="#555655" fill-rule="nonzero" />
    <path transform="matrix(1 0 0 1 665 477)"  d="M0 0L1 0L1 6L2 6L2 7L1 7L1 8L0 8L0 14L-1 14L-1 50L-2 50L-2 13L-1 13L-1 6L0 6L0 0z" stroke="none" fill="#A3A3A2" fill-rule="nonzero" />
    <path transform="matrix(1 0 0 1 651 422)"  d="M0 0L1 0L1 2L0 2L0 5L1 5L1 8L0 8L0 12L-1 12L-1 15L-2 15L-2 11L-3 11L-3 10L-4 10L-4 11L-5 11L-5 3L-4 3L-4 2L-1 2L-1 1L0 1L0 0z" stroke="none" fill="#C9C9C9" fill-rule="nonzero" />
    <path transform="matrix(1 0 0 1 663 527)"  d="M0 0L1 0L1 1L5 1L5 2L7 2L7 3L10 3L10 4L19 4L19 5L18 5L18 6L10 6L10 8L5 8L5 4L3 4L3 3L4 3L4 2L0 2L0 0z" stroke="none" fill="#333333" fill-rule="nonzero" />
    <path transform="matrix(1 0 0 1 665 378)"  d="M0 0L2 0L2 1L1 1L1 2L-1 2L-1 3L-2 3L-2 4L-1 4L-1 6L-3 6L-3 7L-7 7L-7 8L-8 8L-8 9L-9 9L-9 10L-12 10L-12 6L-10 6L-10 5L-9 5L-9 4L-7 4L-7 3L-5 3L-5 2L-3 2L-3 1L0 1L0 0z" stroke="none" fill="#2B2B2B" fill-rule="nonzero" />
    <path transform="matrix(1 0 0 1 665 389)"  d="M0 0L6 0L6 1L5 1L5 2L4 2L4 3L0 3L0 4L-3 4L-3 5L-5 5L-5 6L-6 6L-6 7L-8 7L-8 8L-9 8L-9 7L-13 7L-13 4L-12 4L-12 3L-11 3L-11 4L-10 4L-10 5L-8 5L-8 4L-6 4L-6 3L-5 3L-5 2L-1 2L-1 1L0 1L0 0z" stroke="none" fill="#B6B8B6" fill-rule="nonzero" />
    <path transform="matrix(1 0 0 1 688 504)"  d="M0 0L1 0L1 9L-4 9L-4 6L-6 6L-6 1L0 1L0 0z" stroke="none" fill="#ADAEAD" fill-rule="nonzero" />
    <path transform="matrix(1 0 0 1 666 453)"  d="M0 0L4 0L4 3L5 3L5 10L4 10L4 11L3 11L3 12L1 12L1 9L0 9L0 0z" stroke="none" fill="#C1C3C2" fill-rule="nonzero" />
    <path transform="matrix(1 0 0 1 674 446)"  d="M0 0L2 0L2 8L3 8L3 11L1 11L1 13L0 13L0 12L-2 12L-2 16L-3 16L-3 10L-4 10L-4 8L-3 8L-3 9L-2 9L-2 7L0 7L0 5L-1 5L-1 3L-2 3L-2 1L-1 1L-1 2L0 2L0 0z" stroke="none" fill="#787878" fill-rule="nonzero" />
    <path transform="matrix(1 0 0 1 645 435)"  d="M0 0L1 0L1 1L2 1L2 4L3 4L3 5L4 5L4 6L5 6L5 7L6 7L6 8L8 8L8 9L13 9L13 12L14 12L14 13L15 13L15 18L16 18L16 22L15 22L15 20L14 20L14 16L13 16L13 15L12 15L12 11L8 11L8 10L7 10L7 9L5 9L5 8L3 8L3 6L1 6L1 3L0 3L0 0z" stroke="none" fill="#141515" fill-rule="nonzero" />
    <path transform="matrix(1 0 0 1 667 364)"  d="M0 0L4 0L4 1L1 1L1 2L-4 2L-4 3L-5 3L-5 4L-6 4L-6 5L-5 5L-5 6L-7 6L-7 7L-8 7L-8 8L-10 8L-10 9L-11 9L-11 10L-12 10L-12 11L-15 11L-15 8L-14 8L-14 7L-13 7L-13 6L-11 6L-11 5L-10 5L-10 4L-8 4L-8 3L-6 3L-6 2L-5 2L-5 1L0 1L0 0z" stroke="none" fill="#2B2C2B" fill-rule="nonzero" />
    <path transform="matrix(1 0 0 1 680 448)"  d="M0 0L5 0L5 2L4 2L4 3L5 3L5 4L6 4L6 7L2 7L2 10L3 10L3 11L0 11L0 0z" stroke="none" fill="#6B6A69" fill-rule="nonzero" />
    <path transform="matrix(1 0 0 1 683 416)"  d="M0 0L2 0L2 6L1 6L1 8L0 8L0 11L-1 11L-1 14L-2 14L-2 15L-3 15L-3 17L-4 17L-4 18L-5 18L-5 19L-6 19L-6 20L-7 20L-7 18L-6 18L-6 16L-5 16L-5 14L-4 14L-4 13L-3 13L-3 10L-2 10L-2 6L-1 6L-1 5L0 5L0 0z" stroke="none" fill="#515050" fill-rule="nonzero" />
    <path transform="matrix(1 0 0 1 687 408)"  d="M0 0L1 0L1 2L2 2L2 3L3 3L3 4L4 4L4 6L5 6L5 8L3 8L3 5L2 5L2 4L1 4L1 5L0 5L0 13L-1 13L-1 18L-3 18L-3 20L-5 20L-5 19L-4 19L-4 16L-3 16L-3 14L-2 14L-2 8L-4 8L-4 7L-1 7L-1 4L0 4L0 0z" stroke="none" fill="#332A28" fill-rule="nonzero" />
    <path transform="matrix(1 0 0 1 645 390)"  d="M0 0L1 0L1 1L3 1L3 7L4 7L4 12L3 12L3 8L2 8L2 9L1 9L1 10L0 10L0 11L-1 11L-1 12L-2 12L-2 13L-3 13L-3 14L-4 14L-4 11L-3 11L-3 10L-2 10L-2 9L-1 9L-1 8L0 8L0 7L1 7L1 6L2 6L2 2L1 2L1 3L0 3L0 4L-1 4L-1 5L-2 5L-2 6L-3 6L-3 7L-4 7L-4 4L-3 4L-3 3L-2 3L-2 2L-1 2L-1 1L0 1L0 0z" stroke="none" fill="#ADAEAD" fill-rule="nonzero" />
    <path transform="matrix(1 0 0 1 705 417)"  d="M0 0L2 0L2 9L1 9L1 10L0 10L0 13L-1 13L-1 15L-2 15L-2 16L-3 16L-3 17L-4 17L-4 19L-5 19L-5 20L-6 20L-6 19L-7 19L-7 18L-6 18L-6 17L-5 17L-5 15L-4 15L-4 14L-3 14L-3 12L-2 12L-2 10L-1 10L-1 7L0 7L0 0z" stroke="none" fill="#373737" fill-rule="nonzero" />
    <path transform="matrix(1 0 0 1 703 411)"  d="M0 0L5 0L5 1L8 1L8 12L6 12L6 4L1 4L1 2L-2 2L-2 1L0 1L0 0z" stroke="none" fill="#CECECE" fill-rule="nonzero" />
    <path transform="matrix(1 0 0 1 668 471)"  d="M0 0L6 0L6 1L5 1L5 2L8 2L8 5L7 5L7 6L-2 6L-2 5L0 5L0 0z" stroke="none" fill="#989999" fill-rule="nonzero" />
    <path transform="matrix(1 0 0 1 695 423)"  d="M0 0L1 0L1 2L3 2L3 1L4 1L4 3L3 3L3 4L2 4L2 6L1 6L1 9L-1 9L-1 11L-2 11L-2 12L-3 12L-3 13L-6 13L-6 11L-5 11L-5 10L-4 10L-4 9L-3 9L-3 7L-2 7L-2 5L-1 5L-1 2L0 2L0 0z" stroke="none" fill="#727272" fill-rule="nonzero" />
    <path transform="matrix(1 0 0 1 665 392)"  d="M0 0L2 0L2 1L1 1L1 2L-1 2L-1 3L-2 3L-2 4L0 4L0 5L-2 5L-2 6L-4 6L-4 7L-6 7L-6 9L-9 9L-9 8L-10 8L-10 6L-9 6L-9 5L-8 5L-8 4L-6 4L-6 3L-5 3L-5 2L-3 2L-3 1L0 1L0 0z" stroke="none" fill="#232323" fill-rule="nonzero" />
    <path transform="matrix(1 0 0 1 645 383)"  d="M0 0L4 0L4 8L1 8L1 6L2 6L2 3L0 3L0 4L-1 4L-1 5L-2 5L-2 6L-3 6L-3 8L-4 8L-4 9L-6 9L-6 7L-5 7L-5 6L-4 6L-4 4L-3 4L-3 3L-2 3L-2 2L-1 2L-1 1L0 1L0 0z" stroke="none" fill="#EAEBEB" fill-rule="nonzero" />
    <path transform="matrix(1 0 0 1 692 522)"  d="M0 0L2 0L2 6L-7 6L-7 5L-6 5L-6 3L-7 3L-7 2L-3 2L-3 1L0 1L0 0z" stroke="none" fill="#DDDEDD" fill-rule="nonzero" />
    <path transform="matrix(1 0 0 1 663 400)"  d="M0 0L3 0L3 1L2 1L2 2L1 2L1 3L4 3L4 4L0 4L0 5L-1 5L-1 6L-3 6L-3 7L-4 7L-4 8L-7 8L-7 4L-5 4L-5 3L-4 3L-4 2L-2 2L-2 1L0 1L0 0z" stroke="none" fill="#262726" fill-rule="nonzero" />
    <path transform="matrix(1 0 0 1 666 368)"  d="M0 0L9 0L9 1L7 1L7 2L5 2L5 3L0 3L0 4L-2 4L-2 5L-5 5L-5 4L-7 4L-7 3L-6 3L-6 2L-4 2L-4 1L0 1L0 0z" stroke="none" fill="#AAABAB" fill-rule="nonzero" />
    <path transform="matrix(1 0 0 1 662 408)"  d="M0 0L3 0L3 1L2 1L2 2L1 2L1 3L3 3L3 2L7 2L7 3L4 3L4 4L2 4L2 5L1 5L1 6L-2 6L-2 7L-4 7L-4 6L-5 6L-5 3L-4 3L-4 2L-2 2L-2 1L0 1L0 0z" stroke="none" fill="#373737" fill-rule="nonzero" />
    <path transform="matrix(1 0 0 1 692 450)"  d="M0 0L1 0L1 13L0 13L0 15L-1 15L-1 17L-2 17L-2 18L-4 18L-4 10L-1 10L-1 12L0 12L0 0z" stroke="none" fill="#858686" fill-rule="nonzero" />
    <path transform="matrix(1 0 0 1 688 452)"  d="M0 0L1 0L1 7L4 7L4 10L3 10L3 8L0 8L0 7L-5 7L-5 6L-6 6L-6 3L-2 3L-2 1L-1 1L-1 2L0 2L0 0z" stroke="none" fill="#B4B6B6" fill-rule="nonzero" />
    <path transform="matrix(1 0 0 1 686 403)"  d="M0 0L1 0L1 1L10 1L10 5L12 5L12 4L13 4L13 2L17 2L17 3L14 3L14 5L16 5L16 6L6 6L6 5L2 5L2 4L8 4L8 3L9 3L9 2L0 2L0 0z" stroke="none" fill="#494949" fill-rule="nonzero" />
    <path transform="matrix(1 0 0 1 697 396)"  d="M0 0L6 0L6 1L8 1L8 2L10 2L10 3L13 3L13 5L9 5L9 4L6 4L6 3L4 3L4 2L0 2L0 5L-2 5L-2 1L0 1L0 0z" stroke="none" fill="#AEAFAF" fill-rule="nonzero" />
    <path transform="matrix(1 0 0 1 677 515)"  d="M0 0L1 0L1 6L7 6L7 7L8 7L8 9L2 9L2 10L-1 10L-1 9L0 9L0 7L-1 7L-1 6L-2 6L-2 5L-3 5L-3 3L-2 3L-2 4L-1 4L-1 5L0 5L0 0z" stroke="none" fill="#636464" fill-rule="nonzero" />
    <path transform="matrix(1 0 0 1 671 442)"  d="M0 0L1 0L1 7L2 7L2 9L3 9L3 11L1 11L1 10L0 10L0 9L-1 9L-1 8L-5 8L-5 9L-6 9L-6 10L-7 10L-7 7L-6 7L-6 5L-5 5L-5 4L-2 4L-2 3L-1 3L-1 6L-5 6L-5 7L0 7L0 0z" stroke="none" fill="#D1D3D2" fill-rule="nonzero" />
    <path transform="matrix(1 0 0 1 680 461)"  d="M0 0L1 0L1 7L-2 7L-2 8L-3 8L-3 9L-9 9L-9 8L-8 8L-8 7L-7 7L-7 6L-6 6L-6 5L-5 5L-5 4L-4 4L-4 1L-3 1L-3 6L-2 6L-2 5L-1 5L-1 4L0 4L0 0z" stroke="none" fill="#1B1413" fill-rule="nonzero" />
    <path transform="matrix(1 0 0 1 671 364)"  d="M0 0L8 0L8 2L-1 2L-1 3L-3 3L-3 4L-5 4L-5 5L-10 5L-10 4L-9 4L-9 3L-8 3L-8 2L-3 2L-3 1L0 1L0 0z" stroke="none" fill="#060606" fill-rule="nonzero" />
    <path transform="matrix(1 0 0 1 680 459)"  d="M0 0L3 0L3 2L2 2L2 8L1 8L1 2L0 2L0 6L-1 6L-1 7L-2 7L-2 8L-3 8L-3 3L-4 3L-4 6L-5 6L-5 2L-4 2L-4 1L0 1L0 0z" stroke="none" fill="#352E2C" fill-rule="nonzero" />
    <path transform="matrix(1 0 0 1 712 425)"  d="M0 0L1 0L1 7L0 7L0 8L-1 8L-1 10L-2 10L-2 11L-3 11L-3 13L-5 13L-5 15L-7 15L-7 12L-6 12L-6 11L-5 11L-5 10L-4 10L-4 8L-3 8L-3 7L-2 7L-2 4L0 4L0 0z" stroke="none" fill="#191919" fill-rule="nonzero" />
    <path transform="matrix(1 0 0 1 696 386)"  d="M0 0L5 0L5 1L8 1L8 2L11 2L11 1L10 1L10 0L12 0L12 3L8 3L8 4L9 4L9 5L7 5L7 4L3 4L3 3L0 3L0 0z" stroke="none" fill="#252525" fill-rule="nonzero" />
    <path transform="matrix(1 0 0 1 666 450)"  d="M0 0L4 0L4 1L5 1L5 2L6 2L6 5L5 5L5 4L4 4L4 3L0 3L0 12L1 12L1 14L0 14L0 13L-1 13L-1 4L-2 4L-2 2L-1 2L-1 1L0 1L0 0z" stroke="none" fill="#404141" fill-rule="nonzero" />
    <path transform="matrix(1 0 0 1 701 424)"  d="M0 0L1 0L1 4L2 4L2 5L1 5L1 7L0 7L0 8L-1 8L-1 10L-2 10L-2 11L-3 11L-3 12L-4 12L-4 13L-6 13L-6 11L-5 11L-5 9L-4 9L-4 8L-3 8L-3 6L-2 6L-2 4L-1 4L-1 3L0 3L0 0z" stroke="none" fill="#868786" fill-rule="nonzero" />
    <path transform="matrix(1 0 0 1 681 353)"  d="M0 0L3 0L3 1L4 1L4 5L7 5L7 6L3 6L3 5L-2 5L-2 4L-3 4L-3 1L0 1L0 0z" stroke="none" fill="#BCBDBC" fill-rule="nonzero" />
    <path transform="matrix(1 0 0 1 693 438)"  d="M0 0L4 0L4 1L2 1L2 2L1 2L1 3L0 3L0 5L1 5L1 7L0 7L0 8L1 8L1 10L0 10L0 12L-2 12L-2 3L-3 3L-3 2L-1 2L-1 1L0 1L0 0z" stroke="none" fill="#2D2D2D" fill-rule="nonzero" />
    <path transform="matrix(1 0 0 1 659 426)"  d="M0 0L7 0L7 1L1 1L1 11L0 11L0 12L-1 12L-1 16L-2 16L-2 8L-1 8L-1 4L0 4L0 0z" stroke="none" fill="#898888" fill-rule="nonzero" />
    <path transform="matrix(1 0 0 1 668 424)"  d="M0 0L1 0L1 2L0 2L0 3L-1 3L-1 9L-2 9L-2 11L-3 11L-3 15L-4 15L-4 16L-5 16L-5 13L-4 13L-4 4L-3 4L-3 3L-2 3L-2 2L-1 2L-1 1L0 1L0 0z" stroke="none" fill="#392F2D" fill-rule="nonzero" />
    <path transform="matrix(1 0 0 1 649 392)"  d="M0 0L1 0L1 1L2 1L2 5L5 5L5 6L4 6L4 8L3 8L3 9L2 9L2 11L0 11L0 12L-1 12L-1 10L0 10L0 5L-1 5L-1 3L0 3L0 0z" stroke="none" fill="#EDEFEE" fill-rule="nonzero" />
    <path transform="matrix(1 0 0 1 697 392)"  d="M0 0L3 0L3 1L4 1L4 2L8 2L8 3L10 3L10 4L12 4L12 5L13 5L13 6L8 6L8 5L6 5L6 4L3 4L3 3L0 3L0 0z" stroke="none" fill="#151515" fill-rule="nonzero" />
    <path transform="matrix(1 0 0 1 682 485)"  d="M0 0L1 0L1 1L3 1L3 2L7 2L7 6L0 6L0 0z" stroke="none" fill="#939494" fill-rule="nonzero" />
    <path transform="matrix(1 0 0 1 675 457)"  d="M0 0L2 0L2 2L5 2L5 3L1 3L1 4L0 4L0 9L-1 9L-1 10L-2 10L-2 11L-3 11L-3 12L-5 12L-5 10L-3 10L-3 8L-2 8L-2 6L-1 6L-1 3L-3 3L-3 1L-1 1L-1 2L0 2L0 0z" stroke="none" fill="#514E4D" fill-rule="nonzero" />
    <path transform="matrix(1 0 0 1 666 361)"  d="M0 0L18 0L18 1L13 1L13 3L6 3L6 1L0 1L0 0z" stroke="none" fill="#5A5858" fill-rule="nonzero" />
    <path transform="matrix(1 0 0 1 685 481)"  d="M0 0L3 0L3 1L5 1L5 5L-2 5L-2 1L0 1L0 0z" stroke="none" fill="#0E0E0E" fill-rule="nonzero" />
    <path transform="matrix(1 0 0 1 686 428)"  d="M0 0L1 0L1 3L3 3L3 4L1 4L1 6L0 6L0 7L-1 7L-1 8L-3 8L-3 9L-4 9L-4 10L-5 10L-5 11L-7 11L-7 9L-6 9L-6 8L-5 8L-5 7L-4 7L-4 6L-3 6L-3 5L-2 5L-2 4L-1 4L-1 2L0 2L0 0z" stroke="none" fill="#464443" fill-rule="nonzero" />
    <path transform="matrix(1 0 0 1 695 413)"  d="M0 0L2 0L2 6L1 6L1 10L0 10L0 6L-1 6L-1 10L-2 10L-2 11L-3 11L-3 9L-2 9L-2 2L-1 2L-1 1L0 1L0 0z" stroke="none" fill="#3D3C3B" fill-rule="nonzero" />
    <path transform="matrix(1 0 0 1 706 415)"  d="M0 0L3 0L3 8L5 8L5 12L4 12L4 9L3 9L3 11L2 11L2 12L1 12L1 2L-1 2L-1 1L0 1L0 0z" stroke="none" fill="#989898" fill-rule="nonzero" />
    <path transform="matrix(1 0 0 1 658 388)"  d="M0 0L5 0L5 2L4 2L4 3L2 3L2 4L1 4L1 5L-1 5L-1 6L-3 6L-3 5L-4 5L-4 3L-3 3L-3 2L-1 2L-1 1L0 1L0 0z" stroke="none" fill="#1D1D1D" fill-rule="nonzero" />
    <path transform="matrix(1 0 0 1 657 361)"  d="M0 0L2 0L2 1L1 1L1 3L3 3L3 2L5 2L5 3L4 3L4 4L1 4L1 5L-1 5L-1 6L-2 6L-2 7L-5 7L-5 4L-4 4L-4 3L-3 3L-3 2L-1 2L-1 1L0 1L0 0z" stroke="none" fill="#393939" fill-rule="nonzero" />
    <path transform="matrix(1 0 0 1 668 350)"  d="M0 0L1 0L1 1L2 1L2 3L6 3L6 2L7 2L7 1L8 1L8 7L1 7L1 6L5 6L5 5L1 5L1 2L0 2L0 0z" stroke="none" fill="#989A99" fill-rule="nonzero" />
    <path transform="matrix(1 0 0 1 683 524)"  d="M0 0L2 0L2 1L3 1L3 3L2 3L2 4L11 4L11 5L-4 5L-4 4L-2 4L-2 2L-1 2L-1 1L0 1L0 0z" stroke="none" fill="#BABBBB" fill-rule="nonzero" />
    <path transform="matrix(1 0 0 1 667 403)"  d="M0 0L3 0L3 3L0 3L0 4L-2 4L-2 5L-5 5L-5 6L-6 6L-6 4L-7 4L-7 3L-5 3L-5 2L-4 2L-4 1L0 1L0 0z" stroke="none" fill="#BBBDBC" fill-rule="nonzero" />
    <path transform="matrix(1 0 0 1 668 374)"  d="M0 0L8 0L8 2L6 2L6 3L3 3L3 4L-1 4L-1 3L0 3L0 2L-4 2L-4 1L0 1L0 0z" stroke="none" fill="#626160" fill-rule="nonzero" />
    <path transform="matrix(1 0 0 1 692 364)"  d="M0 0L3 0L3 1L5 1L5 2L8 2L8 3L9 3L9 4L11 4L11 6L8 6L8 4L5 4L5 3L0 3L0 4L-2 4L-2 2L0 2L0 0z" stroke="none" fill="#9C9C9C" fill-rule="nonzero" />
    <path transform="matrix(1 0 0 1 700 356)"  d="M0 0L1 0L1 2L3 2L3 5L4 5L4 10L3 10L3 9L1 9L1 8L-2 8L-2 7L1 7L1 5L0 5L0 4L-1 4L-1 3L-2 3L-2 2L0 2L0 0z" stroke="none" fill="#292727" fill-rule="nonzero" />
    <path transform="matrix(1 0 0 1 671 477)"  d="M0 0L1 0L1 1L2 1L2 2L3 2L3 3L2 3L2 12L1 12L1 17L0 17L0 0z" stroke="none" fill="#0D0807" fill-rule="nonzero" />
    <path transform="matrix(1 0 0 1 685 475)"  d="M0 0L8 0L8 7L7 7L7 1L5 1L5 2L6 2L6 3L4 3L4 6L3 6L3 5L2 5L2 2L-1 2L-1 1L0 1L0 0z" stroke="none" fill="#7E807F" fill-rule="nonzero" />
    <path transform="matrix(1 0 0 1 676 446)"  d="M0 0L1 0L1 1L2 1L2 2L3 2L3 12L1 12L1 8L0 8L0 0z" stroke="none" fill="#E9EBE9" fill-rule="nonzero" />
    <path transform="matrix(1 0 0 1 647 405)"  d="M0 0L2 0L2 3L1 3L1 4L0 4L0 5L-1 5L-1 6L-2 6L-2 7L-3 7L-3 6L-5 6L-5 7L-6 7L-6 8L-7 8L-7 4L-6 4L-6 3L-5 3L-5 5L-3 5L-3 3L-2 3L-2 2L-1 2L-1 1L0 1L0 0z" stroke="none" fill="#232323" fill-rule="nonzero" />
    <path transform="matrix(1 0 0 1 686 397)"  d="M0 0L4 0L4 1L8 1L8 4L0 4L0 6L-1 6L-1 2L3 2L3 1L0 1L0 0z" stroke="none" fill="#1D1D1D" fill-rule="nonzero" />
    <path transform="matrix(1 0 0 1 646 392)"  d="M0 0L1 0L1 4L0 4L0 5L-1 5L-1 6L-2 6L-2 7L-3 7L-3 8L-4 8L-4 7L-7 7L-7 4L-6 4L-6 3L-5 3L-5 5L-4 5L-4 4L-3 4L-3 3L-2 3L-2 2L-1 2L-1 1L0 1L0 0z" stroke="none" fill="#323232" fill-rule="nonzero" />
    <path transform="matrix(1 0 0 1 683 384)"  d="M0 0L9 0L9 4L6 4L6 3L0 3L0 2L1 2L1 1L0 1L0 0z" stroke="none" fill="#171717" fill-rule="nonzero" />
    <path transform="matrix(1 0 0 1 689 351)"  d="M0 0L2 0L2 1L3 1L3 4L5 4L5 3L7 3L7 4L8 4L8 7L9 7L9 8L7 8L7 7L6 7L6 6L2 6L2 5L1 5L1 3L0 3L0 0z" stroke="none" fill="#848484" fill-rule="nonzero" />
    <path transform="matrix(1 0 0 1 681 493)"  d="M0 0L2 0L2 4L3 4L3 11L1 11L1 10L0 10L0 0z" stroke="none" fill="#434243" fill-rule="nonzero" />
    <path transform="matrix(1 0 0 1 648 408)"  d="M0 0L1 0L1 2L3 2L3 6L2 6L2 3L0 3L0 4L-1 4L-1 5L-2 5L-2 6L-3 6L-3 8L-4 8L-4 9L-6 9L-6 6L-5 6L-5 5L-4 5L-4 4L-3 4L-3 3L-2 3L-2 2L-1 2L-1 1L0 1L0 0z" stroke="none" fill="#9D9D9D" fill-rule="nonzero" />
    <path transform="matrix(1 0 0 1 664 372)"  d="M0 0L6 0L6 2L4 2L4 3L0 3L0 4L-2 4L-2 5L-5 5L-5 4L-4 4L-4 3L-3 3L-3 2L-2 2L-2 1L0 1L0 0z" stroke="none" fill="#080808" fill-rule="nonzero" />
    <path transform="matrix(1 0 0 1 668 367)"  d="M0 0L16 0L16 1L12 1L12 3L5 3L5 2L7 2L7 1L0 1L0 0z" stroke="none" fill="#444140" fill-rule="nonzero" />
    <path transform="matrix(1 0 0 1 651 366)"  d="M0 0L1 0L1 2L4 2L4 4L3 4L3 5L2 5L2 6L1 6L1 9L3 9L3 10L0 10L0 5L-2 5L-2 2L-1 2L-1 1L0 1L0 0z" stroke="none" fill="#AAABAB" fill-rule="nonzero" />
    <path transform="matrix(1 0 0 1 693 448)"  d="M0 0L2 0L2 7L3 7L3 12L1 12L1 10L0 10L0 0z" stroke="none" fill="#141414" fill-rule="nonzero" />
    <path transform="matrix(1 0 0 1 707 429)"  d="M0 0L1 0L1 3L0 3L0 5L1 5L1 6L0 6L0 7L-1 7L-1 8L-2 8L-2 9L-3 9L-3 10L-5 10L-5 9L-7 9L-7 8L-5 8L-5 7L-4 7L-4 6L-3 6L-3 5L-2 5L-2 3L-1 3L-1 2L0 2L0 0z" stroke="none" fill="#5F5F5F" fill-rule="nonzero" />
    <path transform="matrix(1 0 0 1 692 414)"  d="M0 0L2 0L2 1L1 1L1 8L0 8L0 11L-2 11L-2 2L0 2L0 0z" stroke="none" fill="#706E6B" fill-rule="nonzero" />
    <path transform="matrix(1 0 0 1 695 390)"  d="M0 0L8 0L8 1L10 1L10 2L11 2L11 3L7 3L7 2L1 2L1 4L-1 4L-1 1L0 1L0 0z" stroke="none" fill="#BCBDBD" fill-rule="nonzero" />
    <path transform="matrix(1 0 0 1 695 380)"  d="M0 0L6 0L6 1L8 1L8 2L11 2L11 1L12 1L12 3L8 3L8 4L5 4L5 3L3 3L3 2L0 2L0 0z" stroke="none" fill="#1E1E1E" fill-rule="nonzero" />
    <path transform="matrix(1 0 0 1 641 370)"  d="M0 0L1 0L1 2L5 2L5 3L3 3L3 4L2 4L2 5L1 5L1 7L0 7L0 9L-2 9L-2 3L-1 3L-1 2L0 2L0 0z" stroke="none" fill="#C5C6C6" fill-rule="nonzero" />
    <path transform="matrix(1 0 0 1 677 469)"  d="M0 0L3 0L3 2L1 2L1 5L0 5L0 6L-1 6L-1 4L-4 4L-4 3L-3 3L-3 2L-8 2L-8 1L0 1L0 0z" stroke="none" fill="#7E7F7F" fill-rule="nonzero" />
    <path transform="matrix(1 0 0 1 647 398)"  d="M0 0L1 0L1 4L0 4L0 5L-1 5L-1 6L-2 6L-2 7L-3 7L-3 8L-4 8L-4 7L-7 7L-7 4L-6 4L-6 6L-5 6L-5 5L-4 5L-4 4L-3 4L-3 3L-2 3L-2 2L-1 2L-1 1L0 1L0 0z" stroke="none" fill="#272727" fill-rule="nonzero" />
    <path transform="matrix(1 0 0 1 669 381)"  d="M0 0L6 0L6 1L5 1L5 2L3 2L3 3L0 3L0 4L-1 4L-1 5L-5 5L-5 4L-2 4L-2 3L-1 3L-1 2L-5 2L-5 1L0 1L0 0z" stroke="none" fill="#6A6968" fill-rule="nonzero" />
    <path transform="matrix(1 0 0 1 647 373)"  d="M0 0L2 0L2 10L-1 10L-1 9L0 9L0 6L-2 6L-2 4L-1 4L-1 3L0 3L0 0z" stroke="none" fill="#F0F2F1" fill-rule="nonzero" />
    <path transform="matrix(1 0 0 1 692 361)"  d="M0 0L2 0L2 1L6 1L6 3L9 3L9 4L11 4L11 6L10 6L10 5L5 5L5 4L3 4L3 3L1 3L1 2L0 2L0 0z" stroke="none" fill="#111111" fill-rule="nonzero" />
    <path transform="matrix(1 0 0 1 662 359)"  d="M0 0L4 0L4 1L3 1L3 2L4 2L4 3L3 3L3 4L-2 4L-2 5L-4 5L-4 3L-3 3L-3 1L0 1L0 0z" stroke="none" fill="#1D1D1D" fill-rule="nonzero" />
    <path transform="matrix(1 0 0 1 688 354)"  d="M0 0L2 0L2 2L3 2L3 3L7 3L7 4L3 4L3 5L0 5L0 4L-3 4L-3 1L0 1L0 0z" stroke="none" fill="#D9DBDA" fill-rule="nonzero" />
    <path transform="matrix(1 0 0 1 693 458)"  d="M0 0L1 0L1 2L3 2L3 7L2 7L2 8L1 8L1 9L0 9L0 8L-1 8L-1 9L-2 9L-2 7L-1 7L-1 5L0 5L0 0z" stroke="none" fill="#242525" fill-rule="nonzero" />
    <path transform="matrix(1 0 0 1 651 410)"  d="M0 0L1 0L1 4L2 4L2 5L1 5L1 6L-1 6L-1 7L-2 7L-2 8L-3 8L-3 9L-4 9L-4 10L-5 10L-5 12L-7 12L-7 10L-6 10L-6 8L-5 8L-5 7L-4 7L-4 6L-2 6L-2 5L-1 5L-1 4L0 4L0 0z" stroke="none" fill="#C5C5C5" fill-rule="nonzero" />
    <path transform="matrix(1 0 0 1 650 387)"  d="M0 0L1 0L1 3L4 3L4 2L6 2L6 3L5 3L5 4L4 4L4 5L3 5L3 6L2 6L2 9L6 9L6 11L4 11L4 10L1 10L1 4L0 4L0 0z" stroke="none" fill="#D5D7D6" fill-rule="nonzero" />
    <path transform="matrix(1 0 0 1 694 377)"  d="M0 0L6 0L6 1L7 1L7 2L10 2L10 3L11 3L11 4L12 4L12 5L9 5L9 4L7 4L7 3L4 3L4 2L1 2L1 1L0 1L0 0z" stroke="none" fill="#B0B1B1" fill-rule="nonzero" />
    <path transform="matrix(1 0 0 1 682 359)"  d="M0 0L5 0L5 3L2 3L2 2L-12 2L-12 1L0 1L0 0z" stroke="none" fill="#131313" fill-rule="nonzero" />
    <path transform="matrix(1 0 0 1 684 493)"  d="M0 0L3 0L3 1L7 1L7 4L0 4L0 0z" stroke="none" fill="#CACCCB" fill-rule="nonzero" />
    <path transform="matrix(1 0 0 1 675 434)"  d="M0 0L1 0L1 2L2 2L2 3L1 3L1 4L-1 4L-1 5L-2 5L-2 6L-1 6L-1 7L-6 7L-6 5L-5 5L-5 4L-4 4L-4 3L-2 3L-2 2L0 2L0 0z" stroke="none" fill="#383738" fill-rule="nonzero" />
    <path transform="matrix(1 0 0 1 651 422)"  d="M0 0L1 0L1 2L0 2L0 3L-2 3L-2 5L-3 5L-3 10L-4 10L-4 11L-5 11L-5 3L-4 3L-4 2L-1 2L-1 1L0 1L0 0z" stroke="none" fill="#DADADA" fill-rule="nonzero" />
    <path transform="matrix(1 0 0 1 700 415)"  d="M0 0L2 0L2 9L1 9L1 12L0 12L0 9L-1 9L-1 6L0 6L0 0z" stroke="none" fill="#363536" fill-rule="nonzero" />
    <path transform="matrix(1 0 0 1 710 398)"  d="M0 0L2 0L2 3L3 3L3 8L2 8L2 11L0 11L0 10L1 10L1 7L2 7L2 5L-1 5L-1 4L-3 4L-3 3L0 3L0 0z" stroke="none" fill="#1D1D1D" fill-rule="nonzero" />
    <path transform="matrix(1 0 0 1 668 394)"  d="M0 0L7 0L7 2L6 2L6 3L5 3L5 4L3 4L3 5L1 5L1 4L2 4L2 2L-1 2L-1 1L0 1L0 0z" stroke="none" fill="#302C2A" fill-rule="nonzero" />
    <path transform="matrix(1 0 0 1 708 387)"  d="M0 0L1 0L1 1L3 1L3 9L2 9L2 7L1 7L1 3L0 3L0 4L-3 4L-3 3L-4 3L-4 2L0 2L0 0z" stroke="none" fill="#181818" fill-rule="nonzero" />
    <path transform="matrix(1 0 0 1 644 377)"  d="M0 0L1 0L1 2L3 2L3 5L2 5L2 3L0 3L0 5L-1 5L-1 6L-2 6L-2 7L-3 7L-3 8L-4 8L-4 9L-5 9L-5 6L-4 6L-4 5L-3 5L-3 4L-2 4L-2 2L-1 2L-1 1L0 1L0 0z" stroke="none" fill="#8C8D8C" fill-rule="nonzero" />
    <path transform="matrix(1 0 0 1 681 374)"  d="M0 0L6 0L6 1L7 1L7 2L11 2L11 3L0 3L0 0z" stroke="none" fill="#B0B1B0" fill-rule="nonzero" />
    <path transform="matrix(1 0 0 1 667 364)"  d="M0 0L4 0L4 1L1 1L1 2L-4 2L-4 3L-5 3L-5 4L-6 4L-6 5L-5 5L-5 6L-7 6L-7 7L-10 7L-10 6L-9 6L-9 5L-8 5L-8 3L-6 3L-6 2L-5 2L-5 1L0 1L0 0z" stroke="none" fill="#242424" fill-rule="nonzero" />
    <path transform="matrix(1 0 0 1 669 347)"  d="M0 0L3 0L3 1L10 1L10 2L11 2L11 4L9 4L9 3L8 3L8 2L6 2L6 3L5 3L5 4L3 4L3 3L2 3L2 2L0 2L0 0z" stroke="none" fill="#A0A1A1" fill-rule="nonzero" />
    <path transform="matrix(1 0 0 1 690 504)"  d="M0 0L1 0L1 13L-1 13L-1 10L-2 10L-2 9L-1 9L-1 4L0 4L0 0z" stroke="none" fill="#444343" fill-rule="nonzero" />
    <path transform="matrix(1 0 0 1 684 461)"  d="M0 0L2 0L2 9L-1 9L-1 4L0 4L0 0z" stroke="none" fill="#797775" fill-rule="nonzero" />
    <path transform="matrix(1 0 0 1 647 402)"  d="M0 0L1 0L1 2L3 2L3 5L2 5L2 3L0 3L0 4L-1 4L-1 5L-2 5L-2 6L-3 6L-3 8L-5 8L-5 5L-4 5L-4 4L-3 4L-3 3L-2 3L-2 2L-1 2L-1 1L0 1L0 0z" stroke="none" fill="#A1A1A1" fill-rule="nonzero" />
    <path transform="matrix(1 0 0 1 679 362)"  d="M0 0L6 0L6 1L11 1L11 3L5 3L5 2L0 2L0 0z" stroke="none" fill="#AEB0AF" fill-rule="nonzero" />
    <path transform="matrix(1 0 0 1 692 466)"  d="M0 0L1 0L1 2L-1 2L-1 3L1 3L1 4L2 4L2 5L3 5L3 7L1 7L1 5L-5 5L-5 3L-2 3L-2 1L0 1L0 0z" stroke="none" fill="#111111" fill-rule="nonzero" />
    <path transform="matrix(1 0 0 1 660 449)"  d="M0 0L1 0L1 2L2 2L2 5L4 5L4 7L3 7L3 8L2 8L2 9L3 9L3 12L2 12L2 10L0 10L0 8L1 8L1 4L0 4L0 0z" stroke="none" fill="#515251" fill-rule="nonzero" />
    <path transform="matrix(1 0 0 1 680 448)"  d="M0 0L5 0L5 2L3 2L3 4L4 4L4 5L2 5L2 6L0 6L0 0z" stroke="none" fill="#292727" fill-rule="nonzero" />
    <path transform="matrix(1 0 0 1 665 378)"  d="M0 0L2 0L2 1L1 1L1 2L-1 2L-1 3L-2 3L-2 4L-1 4L-1 6L-3 6L-3 7L-5 7L-5 4L-4 4L-4 3L-5 3L-5 2L-3 2L-3 1L0 1L0 0z" stroke="none" fill="#363737" fill-rule="nonzero" />
    <path transform="matrix(1 0 0 1 672 347)"  d="M0 0L12 0L12 2L10 2L10 4L11 4L11 5L9 5L9 3L8 3L8 2L7 2L7 1L0 1L0 0z" stroke="none" fill="#302F2E" fill-rule="nonzero" />
    <path transform="matrix(1 0 0 1 672 460)"  d="M0 0L2 0L2 3L1 3L1 5L0 5L0 7L-2 7L-2 6L-5 6L-5 5L-3 5L-3 4L-2 4L-2 3L-1 3L-1 2L0 2L0 0z" stroke="none" fill="#262525" fill-rule="nonzero" />
    <path transform="matrix(1 0 0 1 697 436)"  d="M0 0L1 0L1 2L2 2L2 6L-3 6L-3 4L-2 4L-2 3L0 3L0 2L-3 2L-3 1L0 1L0 0z" stroke="none" fill="#3D3D3D" fill-rule="nonzero" />
    <path transform="matrix(1 0 0 1 705 417)"  d="M0 0L2 0L2 9L1 9L1 10L0 10L0 9L-1 9L-1 7L0 7L0 0z" stroke="none" fill="#4F4F4F" fill-rule="nonzero" />
    <path transform="matrix(1 0 0 1 703 411)"  d="M0 0L5 0L5 1L6 1L6 2L7 2L7 3L3 3L3 4L1 4L1 2L-2 2L-2 1L0 1L0 0z" stroke="none" fill="#E4E6E5" fill-rule="nonzero" />
    <path transform="matrix(1 0 0 1 677 527)"  d="M0 0L2 0L2 2L10 2L10 3L1 3L1 4L-4 4L-4 3L-1 3L-1 2L0 2L0 0z" stroke="none" fill="#9E9F9E" fill-rule="nonzero" />
    <path transform="matrix(1 0 0 1 673 516)"  d="M0 0L1 0L1 1L2 1L2 2L1 2L1 4L2 4L2 5L3 5L3 6L4 6L4 8L2 8L2 7L1 7L1 6L0 6L0 5L-1 5L-1 3L-2 3L-2 2L-1 2L-1 1L0 1L0 0z" stroke="none" fill="#484848" fill-rule="nonzero" />
    <path transform="matrix(1 0 0 1 709 424)"  d="M0 0L1 0L1 3L2 3L2 5L1 5L1 8L0 8L0 9L-1 9L-1 10L-2 10L-2 8L-1 8L-1 5L-2 5L-2 4L-1 4L-1 2L0 2L0 0z" stroke="none" fill="#858585" fill-rule="nonzero" />
    <path transform="matrix(1 0 0 1 653 392)"  d="M0 0L1 0L1 1L2 1L2 2L4 2L4 1L6 1L6 2L5 2L5 3L6 3L6 4L4 4L4 5L3 5L3 4L-1 4L-1 1L0 1L0 0z" stroke="none" fill="#A2A3A2" fill-rule="nonzero" />
    <path transform="matrix(1 0 0 1 665 392)"  d="M0 0L2 0L2 1L1 1L1 2L-1 2L-1 3L-2 3L-2 4L0 4L0 5L-2 5L-2 6L-4 6L-4 4L-6 4L-6 3L-5 3L-5 2L-3 2L-3 1L0 1L0 0z" stroke="none" fill="#343434" fill-rule="nonzero" />
    <path transform="matrix(1 0 0 1 645 390)"  d="M0 0L1 0L1 1L3 1L3 5L2 5L2 2L1 2L1 3L0 3L0 4L-1 4L-1 5L-2 5L-2 6L-3 6L-3 7L-4 7L-4 4L-3 4L-3 3L-2 3L-2 2L-1 2L-1 1L0 1L0 0z" stroke="none" fill="#A1A1A1" fill-rule="nonzero" />
    <path transform="matrix(1 0 0 1 644 384)"  d="M0 0L1 0L1 1L3 1L3 2L1 2L1 3L0 3L0 4L-1 4L-1 5L-2 5L-2 7L-3 7L-3 8L-5 8L-5 6L-4 6L-4 5L-3 5L-3 3L-2 3L-2 2L-1 2L-1 1L0 1L0 0z" stroke="none" fill="#9B9C9C" fill-rule="nonzero" />
    <path transform="matrix(1 0 0 1 663 527)"  d="M0 0L1 0L1 1L5 1L5 2L7 2L7 3L8 3L8 4L9 4L9 5L6 5L6 6L5 6L5 4L3 4L3 3L4 3L4 2L0 2L0 0z" stroke="none" fill="#272626" fill-rule="nonzero" />
    <path transform="matrix(1 0 0 1 692 522)"  d="M0 0L2 0L2 6L-3 6L-3 5L-1 5L-1 1L0 1L0 0z" stroke="none" fill="#EBECEC" fill-rule="nonzero" />
    <path transform="matrix(1 0 0 1 667 454)"  d="M0 0L3 0L3 7L2 7L2 5L1 5L1 7L0 7L0 0z" stroke="none" fill="#EBEEEC" fill-rule="nonzero" />
    <path transform="matrix(1 0 0 1 683 416)"  d="M0 0L2 0L2 6L1 6L1 8L0 8L0 10L-1 10L-1 5L0 5L0 0z" stroke="none" fill="#736F6F" fill-rule="nonzero" />
    <path transform="matrix(1 0 0 1 692 367)"  d="M0 0L5 0L5 1L8 1L8 2L5 2L5 3L6 3L6 4L4 4L4 3L1 3L1 2L0 2L0 0z" stroke="none" fill="#292A29" fill-rule="nonzero" />
    <path transform="matrix(1 0 0 1 691 529)"  d="M0 0L5 0L5 2L-1 2L-1 3L-2 3L-2 4L-4 4L-4 2L-3 2L-3 1L0 1L0 0z" stroke="none" fill="#121313" fill-rule="nonzero" />
    <path transform="matrix(1 0 0 1 681 475)"  d="M0 0L4 0L4 1L3 1L3 2L6 2L6 3L5 3L5 4L2 4L2 3L-1 3L-1 1L0 1L0 0z" stroke="none" fill="#5D5C5B" fill-rule="nonzero" />
    <path transform="matrix(1 0 0 1 680 461)"  d="M0 0L1 0L1 7L-2 7L-2 8L-3 8L-3 9L-4 9L-4 5L-3 5L-3 6L-2 6L-2 5L-1 5L-1 4L0 4L0 0z" stroke="none" fill="#262220" fill-rule="nonzero" />
    <path transform="matrix(1 0 0 1 665 396)"  d="M0 0L5 0L5 2L4 2L4 3L2 3L2 4L0 4L0 2L-2 2L-2 1L0 1L0 0z" stroke="none" fill="#A6A7A6" fill-rule="nonzero" />
    <path transform="matrix(1 0 0 1 693 373)"  d="M0 0L4 0L4 1L7 1L7 2L5 2L5 3L6 3L6 4L4 4L4 3L0 3L0 0z" stroke="none" fill="#252525" fill-rule="nonzero" />
    <path transform="matrix(1 0 0 1 657 372)"  d="M0 0L4 0L4 1L3 1L3 2L2 2L2 3L0 3L0 4L-2 4L-2 5L-5 5L-5 4L-3 4L-3 3L-2 3L-2 2L-1 2L-1 1L0 1L0 0z" stroke="none" fill="#CDCFCE" fill-rule="nonzero" />
    <path transform="matrix(1 0 0 1 668 346)"  d="M0 0L3 0L3 1L1 1L1 3L3 3L3 4L4 4L4 6L2 6L2 5L1 5L1 4L0 4L0 2L-5 2L-5 1L0 1L0 0z" stroke="none" fill="#4C4C4C" fill-rule="nonzero" />
    <path transform="matrix(1 0 0 1 701 424)"  d="M0 0L1 0L1 4L2 4L2 5L1 5L1 7L0 7L0 8L-2 8L-2 4L-1 4L-1 3L0 3L0 0z" stroke="none" fill="#949594" fill-rule="nonzero" />
    <path transform="matrix(1 0 0 1 700 406)"  d="M0 0L6 0L6 1L7 1L7 2L6 2L6 3L2 3L2 2L0 2L0 0z" stroke="none" fill="#0D0D0D" fill-rule="nonzero" />
    <path transform="matrix(1 0 0 1 645 386)"  d="M0 0L2 0L2 3L1 3L1 4L0 4L0 5L-1 5L-1 6L-2 6L-2 5L-3 5L-3 3L-2 3L-2 2L-1 2L-1 1L0 1L0 0z" stroke="none" fill="#2C2C2C" fill-rule="nonzero" />
    <path transform="matrix(1 0 0 1 637 385)"  d="M0 0L1 0L1 2L3 2L3 5L2 5L2 7L4 7L4 8L1 8L1 6L0 6L0 0z" stroke="none" fill="#1E1E1E" fill-rule="nonzero" />
    <path transform="matrix(1 0 0 1 662 376)"  d="M0 0L6 0L6 1L5 1L5 2L3 2L3 3L1 3L1 2L-1 2L-1 3L-3 3L-3 2L-2 2L-2 1L0 1L0 0z" stroke="none" fill="#B1B2B2" fill-rule="nonzero" />
    <path transform="matrix(1 0 0 1 666 368)"  d="M0 0L9 0L9 1L7 1L7 2L5 2L5 3L1 3L1 2L3 2L3 1L0 1L0 0z" stroke="none" fill="#7D7E7D" fill-rule="nonzero" />
    <path transform="matrix(1 0 0 1 681 353)"  d="M0 0L3 0L3 1L4 1L4 2L3 2L3 3L-2 3L-2 4L-3 4L-3 1L0 1L0 0z" stroke="none" fill="#D1D2D1" fill-rule="nonzero" />
    <path transform="matrix(1 0 0 1 392 485)"  d="M0 0L1 0L1 1L2 1L2 3L0 3L0 0z" stroke="none" fill="#FF9307" fill-rule="nonzero" />
    <path transform="matrix(1 0 0 1 375 485)"  d="M0 0L1 0L1 3L0 3L0 0z" stroke="none" fill="#FF9307" fill-rule="nonzero" />
    <path transform="matrix(1 0 0 1 352 432)"  d="M0 0L1 0L1 3L0 3L0 0z" stroke="none" fill="#FF9307" fill-rule="nonzero" />
    <path transform="matrix(1 0 0 1 260 379)"  d="M0 0L1 0L1 2L0 2L0 0z" stroke="none" fill="#FFFEFE" fill-rule="nonzero" />
    <path transform="matrix(1 0 0 1 376 484)"  d="M0 0L1 0L1 1L0 1L0 0z" stroke="none" fill="#FF9307" fill-rule="nonzero" />
    <path transform="matrix(1 0 0 1 615 457)"  d="M0 0L1 0L1 1L0 1L0 0z" stroke="none" fill="#FF9307" fill-rule="nonzero" />
    <path transform="matrix(1 0 0 1 388 452)"  d="M0 0L1 0L1 1L0 1L0 0z" stroke="none" fill="#FF9307" fill-rule="nonzero" />
    <path transform="matrix(1 0 0 1 550 431)"  d="M0 0L1 0L1 1L0 1L0 0z" stroke="none" fill="#FF9307" fill-rule="nonzero" />
    <path transform="matrix(1 0 0 1 323 418)"  d="M0 0L1 0L1 1L0 1L0 0z" stroke="none" fill="#FF9307" fill-rule="nonzero" />
</g>
</svg>
